G04 #@! TF.GenerationSoftware,KiCad,Pcbnew,(6.0.4-0)*
G04 #@! TF.CreationDate,2022-11-06T16:29:11+01:00*
G04 #@! TF.ProjectId,SL_MicroUSB-Breakout,534c5f4d-6963-4726-9f55-53422d427265,rev?*
G04 #@! TF.SameCoordinates,Original*
G04 #@! TF.FileFunction,Legend,Bot*
G04 #@! TF.FilePolarity,Positive*
%FSLAX46Y46*%
G04 Gerber Fmt 4.6, Leading zero omitted, Abs format (unit mm)*
G04 Created by KiCad (PCBNEW (6.0.4-0)) date 2022-11-06 16:29:11*
%MOMM*%
%LPD*%
G01*
G04 APERTURE LIST*
%ADD10C,1.000000*%
%ADD11C,0.150000*%
%ADD12C,0.100000*%
%ADD13C,0.120000*%
%ADD14O,1.200000X1.900000*%
%ADD15C,1.450000*%
%ADD16C,2.000000*%
%ADD17C,3.200000*%
%ADD18R,1.700000X1.700000*%
%ADD19O,1.700000X1.700000*%
G04 APERTURE END LIST*
D10*
X150000000Y-93500000D02*
X153000000Y-93500000D01*
X153000000Y-113500000D02*
G75*
G03*
X153500000Y-113000000I0J500000D01*
G01*
X136500000Y-107000000D02*
X136500000Y-113000000D01*
X145000000Y-113500000D02*
X153000000Y-113500000D01*
X150000000Y-103400000D02*
G75*
G03*
X150000000Y-106500000I0J-1550000D01*
G01*
X137000000Y-93500000D02*
G75*
G03*
X136500000Y-94000000I0J-500000D01*
G01*
X149500000Y-94000000D02*
X150000000Y-93500000D01*
X153500000Y-107000000D02*
G75*
G03*
X153000000Y-106500000I-500000J0D01*
G01*
X153500000Y-94000000D02*
X153500000Y-103000000D01*
X136500000Y-113000000D02*
G75*
G03*
X137000000Y-113500000I500000J0D01*
G01*
X136500084Y-102999987D02*
G75*
G03*
X137000000Y-103400000I466316J70387D01*
G01*
X137000000Y-103400000D02*
X140000000Y-103400000D01*
X136500000Y-103000000D02*
X136500000Y-94000000D01*
X140000000Y-93500000D02*
X140500000Y-94000000D01*
X137000000Y-93500000D02*
X140000000Y-93500000D01*
X152999996Y-103400063D02*
G75*
G03*
X153500000Y-103000000I31704J472863D01*
G01*
X137000000Y-113500000D02*
X145000000Y-113500000D01*
X153000000Y-106500000D02*
X150000000Y-106500000D01*
X153000000Y-103400000D02*
X150000000Y-103400000D01*
X140000000Y-106500000D02*
G75*
G03*
X140000000Y-103400000I0J1550000D01*
G01*
X140500000Y-94000000D02*
X149500000Y-94000000D01*
X137000000Y-106500000D02*
X140000000Y-106500000D01*
X137000000Y-106500000D02*
G75*
G03*
X136500000Y-107000000I0J-500000D01*
G01*
X153500000Y-113000000D02*
X153500000Y-107000000D01*
X153500000Y-94000000D02*
G75*
G03*
X153000000Y-93500000I-500000J0D01*
G01*
D11*
X140609523Y-109100000D02*
X140685714Y-109061904D01*
X140800000Y-109061904D01*
X140914285Y-109100000D01*
X140990476Y-109176190D01*
X141028571Y-109252380D01*
X141066666Y-109404761D01*
X141066666Y-109519047D01*
X141028571Y-109671428D01*
X140990476Y-109747619D01*
X140914285Y-109823809D01*
X140800000Y-109861904D01*
X140723809Y-109861904D01*
X140609523Y-109823809D01*
X140571428Y-109785714D01*
X140571428Y-109519047D01*
X140723809Y-109519047D01*
X140228571Y-109861904D02*
X140228571Y-109061904D01*
X139771428Y-109861904D01*
X139771428Y-109061904D01*
X139390476Y-109861904D02*
X139390476Y-109061904D01*
X139200000Y-109061904D01*
X139085714Y-109100000D01*
X139009523Y-109176190D01*
X138971428Y-109252380D01*
X138933333Y-109404761D01*
X138933333Y-109519047D01*
X138971428Y-109671428D01*
X139009523Y-109747619D01*
X139085714Y-109823809D01*
X139200000Y-109861904D01*
X139390476Y-109861904D01*
X142900000Y-109861904D02*
X142900000Y-109061904D01*
X142519047Y-109861904D02*
X142519047Y-109061904D01*
X142328571Y-109061904D01*
X142214285Y-109100000D01*
X142138095Y-109176190D01*
X142100000Y-109252380D01*
X142061904Y-109404761D01*
X142061904Y-109519047D01*
X142100000Y-109671428D01*
X142138095Y-109747619D01*
X142214285Y-109823809D01*
X142328571Y-109861904D01*
X142519047Y-109861904D01*
X150152380Y-109061904D02*
X150533333Y-109061904D01*
X150571428Y-109442857D01*
X150533333Y-109404761D01*
X150457142Y-109366666D01*
X150266666Y-109366666D01*
X150190476Y-109404761D01*
X150152380Y-109442857D01*
X150114285Y-109519047D01*
X150114285Y-109709523D01*
X150152380Y-109785714D01*
X150190476Y-109823809D01*
X150266666Y-109861904D01*
X150457142Y-109861904D01*
X150533333Y-109823809D01*
X150571428Y-109785714D01*
X149885714Y-109061904D02*
X149619047Y-109861904D01*
X149352380Y-109061904D01*
X145504761Y-109861904D02*
X145504761Y-109061904D01*
X145314285Y-109061904D01*
X145200000Y-109100000D01*
X145123809Y-109176190D01*
X145085714Y-109252380D01*
X145047619Y-109404761D01*
X145047619Y-109519047D01*
X145085714Y-109671428D01*
X145123809Y-109747619D01*
X145200000Y-109823809D01*
X145314285Y-109861904D01*
X145504761Y-109861904D01*
X144704761Y-109557142D02*
X144095238Y-109557142D01*
X144400000Y-109861904D02*
X144400000Y-109252380D01*
D12*
X151702380Y-95440476D02*
X151726190Y-95511904D01*
X151726190Y-95630952D01*
X151702380Y-95678571D01*
X151678571Y-95702380D01*
X151630952Y-95726190D01*
X151583333Y-95726190D01*
X151535714Y-95702380D01*
X151511904Y-95678571D01*
X151488095Y-95630952D01*
X151464285Y-95535714D01*
X151440476Y-95488095D01*
X151416666Y-95464285D01*
X151369047Y-95440476D01*
X151321428Y-95440476D01*
X151273809Y-95464285D01*
X151250000Y-95488095D01*
X151226190Y-95535714D01*
X151226190Y-95654761D01*
X151250000Y-95726190D01*
X151726190Y-95940476D02*
X151226190Y-95940476D01*
X151726190Y-96154761D02*
X151464285Y-96154761D01*
X151416666Y-96130952D01*
X151392857Y-96083333D01*
X151392857Y-96011904D01*
X151416666Y-95964285D01*
X151440476Y-95940476D01*
X151726190Y-96392857D02*
X151392857Y-96392857D01*
X151226190Y-96392857D02*
X151250000Y-96369047D01*
X151273809Y-96392857D01*
X151250000Y-96416666D01*
X151226190Y-96392857D01*
X151273809Y-96392857D01*
X151702380Y-96821428D02*
X151726190Y-96773809D01*
X151726190Y-96678571D01*
X151702380Y-96630952D01*
X151654761Y-96607142D01*
X151464285Y-96607142D01*
X151416666Y-96630952D01*
X151392857Y-96678571D01*
X151392857Y-96773809D01*
X151416666Y-96821428D01*
X151464285Y-96845238D01*
X151511904Y-96845238D01*
X151559523Y-96607142D01*
X151726190Y-97130952D02*
X151702380Y-97083333D01*
X151654761Y-97059523D01*
X151226190Y-97059523D01*
X151726190Y-97535714D02*
X151226190Y-97535714D01*
X151702380Y-97535714D02*
X151726190Y-97488095D01*
X151726190Y-97392857D01*
X151702380Y-97345238D01*
X151678571Y-97321428D01*
X151630952Y-97297619D01*
X151488095Y-97297619D01*
X151440476Y-97321428D01*
X151416666Y-97345238D01*
X151392857Y-97392857D01*
X151392857Y-97488095D01*
X151416666Y-97535714D01*
D11*
X147904761Y-109861904D02*
X147904761Y-109061904D01*
X147714285Y-109061904D01*
X147600000Y-109100000D01*
X147523809Y-109176190D01*
X147485714Y-109252380D01*
X147447619Y-109404761D01*
X147447619Y-109519047D01*
X147485714Y-109671428D01*
X147523809Y-109747619D01*
X147600000Y-109823809D01*
X147714285Y-109861904D01*
X147904761Y-109861904D01*
X147104761Y-109557142D02*
X146495238Y-109557142D01*
D12*
X138297619Y-97559523D02*
X138273809Y-97488095D01*
X138273809Y-97369047D01*
X138297619Y-97321428D01*
X138321428Y-97297619D01*
X138369047Y-97273809D01*
X138416666Y-97273809D01*
X138464285Y-97297619D01*
X138488095Y-97321428D01*
X138511904Y-97369047D01*
X138535714Y-97464285D01*
X138559523Y-97511904D01*
X138583333Y-97535714D01*
X138630952Y-97559523D01*
X138678571Y-97559523D01*
X138726190Y-97535714D01*
X138750000Y-97511904D01*
X138773809Y-97464285D01*
X138773809Y-97345238D01*
X138750000Y-97273809D01*
X138273809Y-97059523D02*
X138773809Y-97059523D01*
X138273809Y-96845238D02*
X138535714Y-96845238D01*
X138583333Y-96869047D01*
X138607142Y-96916666D01*
X138607142Y-96988095D01*
X138583333Y-97035714D01*
X138559523Y-97059523D01*
X138273809Y-96607142D02*
X138607142Y-96607142D01*
X138773809Y-96607142D02*
X138750000Y-96630952D01*
X138726190Y-96607142D01*
X138750000Y-96583333D01*
X138773809Y-96607142D01*
X138726190Y-96607142D01*
X138297619Y-96178571D02*
X138273809Y-96226190D01*
X138273809Y-96321428D01*
X138297619Y-96369047D01*
X138345238Y-96392857D01*
X138535714Y-96392857D01*
X138583333Y-96369047D01*
X138607142Y-96321428D01*
X138607142Y-96226190D01*
X138583333Y-96178571D01*
X138535714Y-96154761D01*
X138488095Y-96154761D01*
X138440476Y-96392857D01*
X138273809Y-95869047D02*
X138297619Y-95916666D01*
X138345238Y-95940476D01*
X138773809Y-95940476D01*
X138273809Y-95464285D02*
X138773809Y-95464285D01*
X138297619Y-95464285D02*
X138273809Y-95511904D01*
X138273809Y-95607142D01*
X138297619Y-95654761D01*
X138321428Y-95678571D01*
X138369047Y-95702380D01*
X138511904Y-95702380D01*
X138559523Y-95678571D01*
X138583333Y-95654761D01*
X138607142Y-95607142D01*
X138607142Y-95511904D01*
X138583333Y-95464285D01*
D13*
X151330000Y-112930000D02*
X151330000Y-111600000D01*
X150000000Y-112930000D02*
X151330000Y-112930000D01*
X148730000Y-112930000D02*
X148730000Y-110270000D01*
X148730000Y-112930000D02*
X138510000Y-112930000D01*
X138510000Y-112930000D02*
X138510000Y-110270000D01*
X148730000Y-110270000D02*
X138510000Y-110270000D01*
G36*
X144642453Y-97750449D02*
G01*
X144642362Y-97750828D01*
X144641277Y-97754477D01*
X144639007Y-97761881D01*
X144635599Y-97772895D01*
X144631096Y-97787376D01*
X144625543Y-97805179D01*
X144618987Y-97826162D01*
X144611473Y-97850180D01*
X144603044Y-97877088D01*
X144593748Y-97906744D01*
X144583628Y-97939003D01*
X144572730Y-97973721D01*
X144561099Y-98010755D01*
X144548781Y-98049960D01*
X144535820Y-98091193D01*
X144522261Y-98134309D01*
X144508151Y-98179165D01*
X144493533Y-98225617D01*
X144478453Y-98273521D01*
X144462957Y-98322733D01*
X144447089Y-98373109D01*
X144430895Y-98424505D01*
X144426900Y-98437182D01*
X144406438Y-98502137D01*
X144387200Y-98563237D01*
X144369161Y-98620568D01*
X144352293Y-98674217D01*
X144336570Y-98724269D01*
X144321965Y-98770811D01*
X144308452Y-98813928D01*
X144296003Y-98853706D01*
X144284592Y-98890233D01*
X144274192Y-98923593D01*
X144264777Y-98953873D01*
X144256319Y-98981159D01*
X144248792Y-99005537D01*
X144242170Y-99027093D01*
X144236425Y-99045914D01*
X144231530Y-99062084D01*
X144227460Y-99075692D01*
X144224187Y-99086821D01*
X144221684Y-99095560D01*
X144219926Y-99101993D01*
X144218884Y-99106207D01*
X144218532Y-99108287D01*
X144218519Y-99112546D01*
X144218958Y-99116593D01*
X144220386Y-99118121D01*
X144223288Y-99118131D01*
X144223358Y-99118115D01*
X144225894Y-99116610D01*
X144231533Y-99112779D01*
X144240070Y-99106769D01*
X144251303Y-99098729D01*
X144265029Y-99088807D01*
X144281044Y-99077153D01*
X144299147Y-99063914D01*
X144319132Y-99049239D01*
X144340798Y-99033277D01*
X144363942Y-99016176D01*
X144388360Y-98998084D01*
X144413848Y-98979150D01*
X144440206Y-98959522D01*
X144442959Y-98957469D01*
X144469185Y-98937929D01*
X144494485Y-98919101D01*
X144518657Y-98901132D01*
X144541503Y-98884171D01*
X144562823Y-98868366D01*
X144582416Y-98853863D01*
X144600082Y-98840812D01*
X144615622Y-98829359D01*
X144628835Y-98819652D01*
X144639522Y-98811840D01*
X144647482Y-98806069D01*
X144652517Y-98802488D01*
X144654424Y-98801244D01*
X144655950Y-98802086D01*
X144660493Y-98805239D01*
X144667703Y-98810497D01*
X144677266Y-98817617D01*
X144688869Y-98826356D01*
X144702196Y-98836471D01*
X144716935Y-98847719D01*
X144732769Y-98859856D01*
X144749386Y-98872639D01*
X144766472Y-98885825D01*
X144783711Y-98899170D01*
X144800789Y-98912431D01*
X144817394Y-98925365D01*
X144833209Y-98937728D01*
X144847922Y-98949278D01*
X144861217Y-98959771D01*
X144872782Y-98968963D01*
X144882300Y-98976612D01*
X144889459Y-98982474D01*
X144893945Y-98986306D01*
X144895442Y-98987864D01*
X144895413Y-98987909D01*
X144893353Y-98989671D01*
X144888184Y-98993755D01*
X144880103Y-99000012D01*
X144869307Y-99008296D01*
X144855993Y-99018458D01*
X144840358Y-99030351D01*
X144822597Y-99043826D01*
X144802909Y-99058737D01*
X144781489Y-99074934D01*
X144758535Y-99092271D01*
X144734242Y-99110600D01*
X144708808Y-99129773D01*
X144682429Y-99149642D01*
X144655303Y-99170059D01*
X144627625Y-99190877D01*
X144599592Y-99211948D01*
X144571402Y-99233124D01*
X144543251Y-99254258D01*
X144515335Y-99275201D01*
X144487852Y-99295805D01*
X144460997Y-99315924D01*
X144434968Y-99335410D01*
X144409962Y-99354113D01*
X144386175Y-99371888D01*
X144363803Y-99388586D01*
X144343044Y-99404058D01*
X144324094Y-99418159D01*
X144307150Y-99430739D01*
X144292408Y-99441651D01*
X144280066Y-99450747D01*
X144270320Y-99457880D01*
X144263367Y-99462901D01*
X144259403Y-99465663D01*
X144236803Y-99479625D01*
X144208687Y-99494536D01*
X144180878Y-99506647D01*
X144153980Y-99515702D01*
X144128596Y-99521444D01*
X144121982Y-99522356D01*
X144104977Y-99523567D01*
X144086555Y-99523532D01*
X144065678Y-99521698D01*
X144037159Y-99515786D01*
X144009543Y-99506219D01*
X143983203Y-99493282D01*
X143958513Y-99477258D01*
X143935846Y-99458433D01*
X143915576Y-99437091D01*
X143898077Y-99413517D01*
X143883720Y-99387994D01*
X143872881Y-99360807D01*
X143870920Y-99354297D01*
X143865486Y-99329603D01*
X143862701Y-99304028D01*
X143862656Y-99278851D01*
X143865441Y-99255348D01*
X143865486Y-99255141D01*
X143866484Y-99251615D01*
X143868670Y-99244357D01*
X143871991Y-99233532D01*
X143876394Y-99219309D01*
X143881827Y-99201855D01*
X143888237Y-99181337D01*
X143895569Y-99157921D01*
X143903773Y-99131776D01*
X143912793Y-99103069D01*
X143922578Y-99071966D01*
X143933074Y-99038636D01*
X143944229Y-99003244D01*
X143955989Y-98965959D01*
X143968301Y-98926948D01*
X143981113Y-98886377D01*
X143994371Y-98844415D01*
X144008023Y-98801228D01*
X144022015Y-98756984D01*
X144036294Y-98711849D01*
X144050807Y-98665992D01*
X144065502Y-98619579D01*
X144080326Y-98572778D01*
X144095224Y-98525755D01*
X144110145Y-98478678D01*
X144125036Y-98431714D01*
X144139842Y-98385031D01*
X144154512Y-98338796D01*
X144168993Y-98293175D01*
X144183231Y-98248337D01*
X144197173Y-98204448D01*
X144210766Y-98161675D01*
X144223958Y-98120186D01*
X144236695Y-98080149D01*
X144248924Y-98041730D01*
X144260593Y-98005096D01*
X144271648Y-97970415D01*
X144282037Y-97937853D01*
X144291706Y-97907580D01*
X144300602Y-97879760D01*
X144308672Y-97854562D01*
X144315864Y-97832153D01*
X144322124Y-97812700D01*
X144327399Y-97796371D01*
X144331637Y-97783332D01*
X144334784Y-97773751D01*
X144336787Y-97767795D01*
X144337594Y-97765631D01*
X144339269Y-97765378D01*
X144344734Y-97764929D01*
X144353604Y-97764329D01*
X144365481Y-97763599D01*
X144379969Y-97762759D01*
X144396669Y-97761829D01*
X144415185Y-97760827D01*
X144435118Y-97759774D01*
X144456072Y-97758690D01*
X144477648Y-97757595D01*
X144499451Y-97756508D01*
X144521081Y-97755449D01*
X144542142Y-97754438D01*
X144562237Y-97753494D01*
X144580968Y-97752639D01*
X144597937Y-97751890D01*
X144612748Y-97751268D01*
X144625002Y-97750794D01*
X144634302Y-97750486D01*
X144640252Y-97750364D01*
X144642453Y-97750449D01*
G37*
G36*
X147513560Y-100388163D02*
G01*
X147513649Y-100415516D01*
X147513731Y-100445327D01*
X147513804Y-100477394D01*
X147513867Y-100511517D01*
X147513921Y-100547494D01*
X147513965Y-100585124D01*
X147513997Y-100624206D01*
X147514018Y-100664538D01*
X147514027Y-100705920D01*
X147514033Y-100751669D01*
X147514043Y-100797873D01*
X147514053Y-100840251D01*
X147514055Y-100878975D01*
X147514045Y-100914214D01*
X147514016Y-100946140D01*
X147513964Y-100974923D01*
X147513883Y-101000733D01*
X147513766Y-101023742D01*
X147513608Y-101044119D01*
X147513404Y-101062035D01*
X147513148Y-101077661D01*
X147512834Y-101091168D01*
X147512457Y-101102726D01*
X147512010Y-101112506D01*
X147511490Y-101120678D01*
X147510888Y-101127412D01*
X147510201Y-101132880D01*
X147509422Y-101137253D01*
X147508546Y-101140700D01*
X147507567Y-101143392D01*
X147506479Y-101145499D01*
X147505277Y-101147194D01*
X147503956Y-101148645D01*
X147502509Y-101150024D01*
X147500930Y-101151501D01*
X147499215Y-101153247D01*
X147491588Y-101160193D01*
X147481604Y-101165730D01*
X147469661Y-101168759D01*
X147454883Y-101169604D01*
X147451065Y-101169506D01*
X147435076Y-101167317D01*
X147421913Y-101162198D01*
X147411385Y-101154052D01*
X147403300Y-101142779D01*
X147402871Y-101141974D01*
X147402118Y-101140413D01*
X147401463Y-101138620D01*
X147400898Y-101136316D01*
X147400416Y-101133221D01*
X147400008Y-101129054D01*
X147399667Y-101123535D01*
X147399384Y-101116384D01*
X147399152Y-101107322D01*
X147398962Y-101096068D01*
X147398807Y-101082343D01*
X147398677Y-101065865D01*
X147398567Y-101046356D01*
X147398466Y-101023535D01*
X147398368Y-100997122D01*
X147398265Y-100966837D01*
X147397698Y-100799199D01*
X147207016Y-100799199D01*
X147099604Y-100978204D01*
X147090852Y-100992774D01*
X147075973Y-101017469D01*
X147061652Y-101041147D01*
X147048046Y-101063552D01*
X147035311Y-101084429D01*
X147023606Y-101103524D01*
X147013086Y-101120582D01*
X147003908Y-101135348D01*
X146996230Y-101147568D01*
X146990207Y-101156985D01*
X146985998Y-101163346D01*
X146983759Y-101166397D01*
X146980011Y-101170098D01*
X146973196Y-101175617D01*
X146967021Y-101179377D01*
X146963612Y-101180754D01*
X146950646Y-101183245D01*
X146936932Y-101182015D01*
X146923237Y-101177105D01*
X146910945Y-101170052D01*
X146899243Y-101160508D01*
X146891195Y-101149731D01*
X146886551Y-101137366D01*
X146885059Y-101123056D01*
X146885115Y-101119743D01*
X146886454Y-101108948D01*
X146889919Y-101099182D01*
X146890531Y-101097994D01*
X146893311Y-101093027D01*
X146897986Y-101084930D01*
X146904385Y-101073990D01*
X146912339Y-101060495D01*
X146921677Y-101044732D01*
X146932229Y-101026986D01*
X146943825Y-101007546D01*
X146956295Y-100986697D01*
X146969469Y-100964728D01*
X146983177Y-100941924D01*
X146988480Y-100933109D01*
X147004514Y-100906407D01*
X147018499Y-100883028D01*
X147030530Y-100862808D01*
X147040702Y-100845584D01*
X147049108Y-100831189D01*
X147055844Y-100819460D01*
X147061005Y-100810233D01*
X147064686Y-100803342D01*
X147066981Y-100798624D01*
X147067984Y-100795914D01*
X147067792Y-100795047D01*
X147065948Y-100794839D01*
X147060415Y-100793768D01*
X147052607Y-100791991D01*
X147043583Y-100789739D01*
X147014155Y-100780184D01*
X146987131Y-100767400D01*
X146962855Y-100751526D01*
X146941392Y-100732629D01*
X146922809Y-100710776D01*
X146907171Y-100686034D01*
X146894545Y-100658471D01*
X146884996Y-100628153D01*
X146882565Y-100617866D01*
X146879627Y-100602636D01*
X146877446Y-100586841D01*
X146875967Y-100569771D01*
X146875134Y-100550712D01*
X146874889Y-100528953D01*
X146875008Y-100518527D01*
X146991452Y-100518527D01*
X146991757Y-100539340D01*
X146992765Y-100559254D01*
X146994485Y-100577349D01*
X146996924Y-100592703D01*
X146997630Y-100595989D01*
X147003833Y-100616595D01*
X147012573Y-100634137D01*
X147024008Y-100648752D01*
X147038299Y-100660575D01*
X147055602Y-100669741D01*
X147076078Y-100676388D01*
X147099886Y-100680650D01*
X147100571Y-100680728D01*
X147107583Y-100681224D01*
X147118555Y-100681663D01*
X147133320Y-100682041D01*
X147151710Y-100682356D01*
X147173558Y-100682605D01*
X147198698Y-100682786D01*
X147226961Y-100682898D01*
X147258181Y-100682936D01*
X147397793Y-100682942D01*
X147397793Y-100354558D01*
X147249877Y-100355490D01*
X147229545Y-100355621D01*
X147203741Y-100355799D01*
X147181540Y-100355975D01*
X147162622Y-100356159D01*
X147146662Y-100356362D01*
X147133339Y-100356593D01*
X147122330Y-100356863D01*
X147113312Y-100357181D01*
X147105963Y-100357557D01*
X147099961Y-100358001D01*
X147094982Y-100358524D01*
X147090705Y-100359136D01*
X147086806Y-100359845D01*
X147082964Y-100360663D01*
X147082621Y-100360740D01*
X147060868Y-100367199D01*
X147042408Y-100376114D01*
X147027082Y-100387631D01*
X147014733Y-100401897D01*
X147005203Y-100419057D01*
X146998335Y-100439258D01*
X146997093Y-100444699D01*
X146994671Y-100459900D01*
X146992917Y-100477886D01*
X146991842Y-100497735D01*
X146991452Y-100518527D01*
X146875008Y-100518527D01*
X146875176Y-100503782D01*
X146875273Y-100499134D01*
X146875863Y-100478718D01*
X146876717Y-100461527D01*
X146877928Y-100446795D01*
X146879591Y-100433754D01*
X146881798Y-100421638D01*
X146884645Y-100409679D01*
X146888224Y-100397111D01*
X146894227Y-100379634D01*
X146906866Y-100352323D01*
X146922592Y-100327749D01*
X146941304Y-100306011D01*
X146962899Y-100287204D01*
X146987277Y-100271425D01*
X147014335Y-100258770D01*
X147043971Y-100249337D01*
X147049176Y-100248036D01*
X147055203Y-100246597D01*
X147061049Y-100245334D01*
X147067004Y-100244236D01*
X147073356Y-100243291D01*
X147080393Y-100242488D01*
X147088406Y-100241815D01*
X147097682Y-100241260D01*
X147108510Y-100240813D01*
X147121180Y-100240461D01*
X147135980Y-100240194D01*
X147153199Y-100239999D01*
X147173126Y-100239866D01*
X147196050Y-100239782D01*
X147222259Y-100239736D01*
X147252042Y-100239717D01*
X147285689Y-100239714D01*
X147475644Y-100239714D01*
X147487062Y-100246135D01*
X147492322Y-100249603D01*
X147501771Y-100258811D01*
X147508861Y-100269922D01*
X147512711Y-100281715D01*
X147512766Y-100282411D01*
X147512893Y-100286926D01*
X147513016Y-100295307D01*
X147513136Y-100307353D01*
X147513251Y-100322863D01*
X147513360Y-100341635D01*
X147513421Y-100354558D01*
X147513463Y-100363469D01*
X147513560Y-100388163D01*
G37*
G36*
X146175407Y-97383970D02*
G01*
X146203805Y-97384008D01*
X146229259Y-97384080D01*
X146251968Y-97384192D01*
X146272132Y-97384349D01*
X146289949Y-97384556D01*
X146305618Y-97384820D01*
X146319338Y-97385145D01*
X146331309Y-97385537D01*
X146341729Y-97386001D01*
X146350797Y-97386544D01*
X146358713Y-97387170D01*
X146365675Y-97387885D01*
X146371882Y-97388694D01*
X146377534Y-97389603D01*
X146382829Y-97390618D01*
X146387966Y-97391744D01*
X146393144Y-97392986D01*
X146398563Y-97394350D01*
X146404422Y-97395841D01*
X146409221Y-97397100D01*
X146440189Y-97407458D01*
X146468481Y-97420981D01*
X146494036Y-97437608D01*
X146516793Y-97457280D01*
X146536690Y-97479938D01*
X146553665Y-97505522D01*
X146567659Y-97533972D01*
X146578608Y-97565228D01*
X146584419Y-97590792D01*
X146587514Y-97619715D01*
X146587144Y-97648637D01*
X146583387Y-97677004D01*
X146576318Y-97704256D01*
X146566017Y-97729837D01*
X146552559Y-97753190D01*
X146551388Y-97754917D01*
X146550172Y-97756692D01*
X146548912Y-97758460D01*
X146547533Y-97760279D01*
X146545960Y-97762205D01*
X146544118Y-97764294D01*
X146541933Y-97766603D01*
X146539331Y-97769188D01*
X146536235Y-97772106D01*
X146532573Y-97775414D01*
X146528269Y-97779167D01*
X146523248Y-97783422D01*
X146517435Y-97788237D01*
X146510757Y-97793666D01*
X146503138Y-97799768D01*
X146494504Y-97806597D01*
X146484779Y-97814212D01*
X146473890Y-97822667D01*
X146461762Y-97832020D01*
X146448319Y-97842328D01*
X146433488Y-97853646D01*
X146417193Y-97866031D01*
X146399360Y-97879540D01*
X146379915Y-97894229D01*
X146358781Y-97910154D01*
X146335886Y-97927373D01*
X146311154Y-97945941D01*
X146284510Y-97965916D01*
X146255880Y-97987352D01*
X146225189Y-98010308D01*
X146192363Y-98034840D01*
X146157326Y-98061003D01*
X146120004Y-98088855D01*
X146080323Y-98118452D01*
X146038207Y-98149851D01*
X145993583Y-98183107D01*
X145946374Y-98218278D01*
X145896508Y-98255420D01*
X145843908Y-98294589D01*
X145788500Y-98335842D01*
X145730211Y-98379235D01*
X145668964Y-98424826D01*
X145604685Y-98472670D01*
X145537299Y-98522823D01*
X145466733Y-98575343D01*
X145392911Y-98630286D01*
X145390668Y-98631954D01*
X145376536Y-98642416D01*
X145363462Y-98652013D01*
X145351825Y-98660473D01*
X145342000Y-98667526D01*
X145334365Y-98672900D01*
X145329298Y-98676324D01*
X145327174Y-98677527D01*
X145325835Y-98676819D01*
X145321327Y-98674026D01*
X145313983Y-98669318D01*
X145304135Y-98662918D01*
X145292114Y-98655046D01*
X145278252Y-98645924D01*
X145262881Y-98635771D01*
X145246332Y-98624811D01*
X145228937Y-98613263D01*
X145211027Y-98601349D01*
X145192934Y-98589290D01*
X145174991Y-98577306D01*
X145157528Y-98565620D01*
X145140877Y-98554452D01*
X145125369Y-98544024D01*
X145111338Y-98534555D01*
X145099113Y-98526268D01*
X145089027Y-98519384D01*
X145081412Y-98514124D01*
X145076599Y-98510708D01*
X145074919Y-98509358D01*
X145075722Y-98508663D01*
X145079558Y-98505661D01*
X145086374Y-98500436D01*
X145095965Y-98493139D01*
X145108129Y-98483925D01*
X145122662Y-98472947D01*
X145139359Y-98460359D01*
X145158018Y-98446314D01*
X145178434Y-98430965D01*
X145200404Y-98414467D01*
X145223724Y-98396972D01*
X145248191Y-98378634D01*
X145273601Y-98359608D01*
X145305275Y-98335900D01*
X145373449Y-98284869D01*
X145438375Y-98236263D01*
X145500107Y-98190042D01*
X145558699Y-98146164D01*
X145614206Y-98104590D01*
X145666681Y-98065277D01*
X145716179Y-98028186D01*
X145762755Y-97993276D01*
X145806462Y-97960505D01*
X145847354Y-97929834D01*
X145885487Y-97901221D01*
X145920913Y-97874626D01*
X145953688Y-97850008D01*
X145983865Y-97827325D01*
X146011500Y-97806539D01*
X146036645Y-97787606D01*
X146059356Y-97770488D01*
X146079686Y-97755143D01*
X146097690Y-97741530D01*
X146113421Y-97729609D01*
X146126936Y-97719339D01*
X146138286Y-97710678D01*
X146147527Y-97703587D01*
X146154713Y-97698025D01*
X146159899Y-97693950D01*
X146163137Y-97691323D01*
X146164484Y-97690102D01*
X146165895Y-97688253D01*
X146168371Y-97683918D01*
X146167791Y-97681117D01*
X146164123Y-97678846D01*
X146161455Y-97678490D01*
X146154728Y-97678100D01*
X146144098Y-97677692D01*
X146129690Y-97677268D01*
X146111633Y-97676832D01*
X146090052Y-97676385D01*
X146065074Y-97675931D01*
X146036827Y-97675471D01*
X146005435Y-97675009D01*
X145971027Y-97674548D01*
X145933729Y-97674089D01*
X145930466Y-97674051D01*
X145900304Y-97673678D01*
X145871335Y-97673293D01*
X145843827Y-97672901D01*
X145818049Y-97672506D01*
X145794271Y-97672114D01*
X145772761Y-97671730D01*
X145753789Y-97671358D01*
X145737623Y-97671004D01*
X145724533Y-97670672D01*
X145714787Y-97670368D01*
X145708655Y-97670097D01*
X145706406Y-97669863D01*
X145706082Y-97669039D01*
X145704695Y-97664711D01*
X145702346Y-97657024D01*
X145699148Y-97646364D01*
X145695212Y-97633119D01*
X145690652Y-97617675D01*
X145685579Y-97600417D01*
X145680105Y-97581733D01*
X145674343Y-97562008D01*
X145668406Y-97541630D01*
X145662405Y-97520984D01*
X145656452Y-97500458D01*
X145650661Y-97480437D01*
X145645143Y-97461308D01*
X145640010Y-97443457D01*
X145635375Y-97427271D01*
X145631350Y-97413136D01*
X145628047Y-97401439D01*
X145625579Y-97392566D01*
X145624058Y-97386904D01*
X145623596Y-97384838D01*
X145623678Y-97384831D01*
X145626522Y-97384789D01*
X145633264Y-97384745D01*
X145643691Y-97384698D01*
X145657592Y-97384649D01*
X145674752Y-97384599D01*
X145694960Y-97384547D01*
X145718003Y-97384495D01*
X145743667Y-97384442D01*
X145771740Y-97384390D01*
X145802009Y-97384338D01*
X145834262Y-97384287D01*
X145868286Y-97384237D01*
X145903867Y-97384190D01*
X145940794Y-97384144D01*
X145978853Y-97384102D01*
X145982295Y-97384098D01*
X146028397Y-97384048D01*
X146070560Y-97384005D01*
X146108984Y-97383974D01*
X146143866Y-97383960D01*
X146175407Y-97383970D01*
G37*
G36*
X142441497Y-101075447D02*
G01*
X142441200Y-101089193D01*
X142440844Y-101100969D01*
X142440422Y-101110947D01*
X142439931Y-101119296D01*
X142439365Y-101126187D01*
X142438717Y-101131790D01*
X142437984Y-101136276D01*
X142437159Y-101139815D01*
X142436237Y-101142577D01*
X142435214Y-101144732D01*
X142434083Y-101146452D01*
X142432839Y-101147906D01*
X142431478Y-101149265D01*
X142429993Y-101150699D01*
X142428380Y-101152379D01*
X142421043Y-101159443D01*
X142411621Y-101165209D01*
X142400156Y-101168698D01*
X142398143Y-101168878D01*
X142392015Y-101169103D01*
X142382238Y-101169308D01*
X142369099Y-101169489D01*
X142352889Y-101169646D01*
X142333895Y-101169778D01*
X142312408Y-101169882D01*
X142288714Y-101169957D01*
X142263104Y-101170001D01*
X142235866Y-101170012D01*
X142207289Y-101169990D01*
X142177662Y-101169932D01*
X142176203Y-101169929D01*
X142141828Y-101169839D01*
X142111332Y-101169752D01*
X142084453Y-101169662D01*
X142060928Y-101169563D01*
X142040495Y-101169450D01*
X142022893Y-101169318D01*
X142007857Y-101169161D01*
X141995127Y-101168973D01*
X141984439Y-101168749D01*
X141975532Y-101168484D01*
X141968143Y-101168172D01*
X141962010Y-101167808D01*
X141956870Y-101167386D01*
X141952461Y-101166901D01*
X141948521Y-101166348D01*
X141944787Y-101165720D01*
X141940997Y-101165013D01*
X141909071Y-101157274D01*
X141879407Y-101146586D01*
X141852788Y-101133104D01*
X141829229Y-101116838D01*
X141808743Y-101097798D01*
X141791344Y-101075994D01*
X141777046Y-101051434D01*
X141773074Y-101043117D01*
X141767472Y-101030077D01*
X141762882Y-101017151D01*
X141758822Y-101002924D01*
X141754813Y-100985982D01*
X141753696Y-100980780D01*
X141752656Y-100975321D01*
X141751833Y-100969837D01*
X141751203Y-100963813D01*
X141750741Y-100956733D01*
X141750423Y-100948081D01*
X141750223Y-100937340D01*
X141750116Y-100923995D01*
X141750079Y-100907530D01*
X141750083Y-100894821D01*
X141865886Y-100894821D01*
X141866123Y-100912213D01*
X141866649Y-100928537D01*
X141867465Y-100943024D01*
X141868570Y-100954906D01*
X141869967Y-100963415D01*
X141876446Y-100984558D01*
X141885352Y-101002518D01*
X141896915Y-101017469D01*
X141911384Y-101029670D01*
X141929010Y-101039381D01*
X141950041Y-101046863D01*
X141952534Y-101047553D01*
X141955350Y-101048254D01*
X141958391Y-101048865D01*
X141961938Y-101049394D01*
X141966269Y-101049848D01*
X141971667Y-101050234D01*
X141978412Y-101050559D01*
X141986784Y-101050832D01*
X141997064Y-101051059D01*
X142009532Y-101051248D01*
X142024468Y-101051406D01*
X142042155Y-101051540D01*
X142062871Y-101051658D01*
X142086897Y-101051767D01*
X142114514Y-101051875D01*
X142146003Y-101051988D01*
X142326097Y-101052624D01*
X142326097Y-100724462D01*
X142159443Y-100724462D01*
X142153031Y-100724463D01*
X142120867Y-100724503D01*
X142091371Y-100724598D01*
X142064730Y-100724747D01*
X142041127Y-100724948D01*
X142020750Y-100725197D01*
X142003783Y-100725494D01*
X141990411Y-100725835D01*
X141980821Y-100726218D01*
X141975197Y-100726643D01*
X141965740Y-100727976D01*
X141943166Y-100732820D01*
X141923989Y-100739732D01*
X141907953Y-100748925D01*
X141894801Y-100760607D01*
X141884276Y-100774988D01*
X141876122Y-100792280D01*
X141870081Y-100812693D01*
X141869015Y-100818728D01*
X141867816Y-100829936D01*
X141866903Y-100843918D01*
X141866276Y-100859905D01*
X141865937Y-100877129D01*
X141865886Y-100894821D01*
X141750083Y-100894821D01*
X141750086Y-100887429D01*
X141750103Y-100874540D01*
X141750160Y-100856638D01*
X141750273Y-100842067D01*
X141750467Y-100830316D01*
X141750765Y-100820878D01*
X141751192Y-100813244D01*
X141751771Y-100806904D01*
X141752527Y-100801351D01*
X141753484Y-100796074D01*
X141754666Y-100790566D01*
X141762372Y-100762003D01*
X141773221Y-100733542D01*
X141786612Y-100708199D01*
X141802645Y-100685816D01*
X141821420Y-100666232D01*
X141843035Y-100649290D01*
X141855102Y-100641091D01*
X141845728Y-100631071D01*
X141838002Y-100622082D01*
X141824242Y-100601437D01*
X141813053Y-100577600D01*
X141804472Y-100550647D01*
X141804344Y-100550141D01*
X141802963Y-100544371D01*
X141801896Y-100538882D01*
X141801104Y-100533040D01*
X141800549Y-100526212D01*
X141800191Y-100517765D01*
X141799992Y-100507066D01*
X141799912Y-100493482D01*
X141799913Y-100481569D01*
X141916431Y-100481569D01*
X141916481Y-100495843D01*
X141916642Y-100508540D01*
X141916961Y-100518431D01*
X141917489Y-100526228D01*
X141918275Y-100532643D01*
X141919369Y-100538386D01*
X141920821Y-100544169D01*
X141924516Y-100556129D01*
X141931357Y-100571939D01*
X141939758Y-100584493D01*
X141950063Y-100594265D01*
X141962616Y-100601729D01*
X141974213Y-100607168D01*
X142326097Y-100608318D01*
X142326097Y-100354625D01*
X142161573Y-100355491D01*
X142154108Y-100355531D01*
X142124467Y-100355699D01*
X142098623Y-100355869D01*
X142076289Y-100356046D01*
X142057174Y-100356239D01*
X142040993Y-100356453D01*
X142027456Y-100356697D01*
X142016276Y-100356976D01*
X142007165Y-100357298D01*
X141999834Y-100357669D01*
X141993995Y-100358097D01*
X141989361Y-100358589D01*
X141985643Y-100359150D01*
X141982554Y-100359789D01*
X141973499Y-100362228D01*
X141957015Y-100368787D01*
X141943779Y-100377563D01*
X141933419Y-100388916D01*
X141925564Y-100403209D01*
X141919843Y-100420801D01*
X141918749Y-100425959D01*
X141917799Y-100432694D01*
X141917128Y-100440970D01*
X141916701Y-100451440D01*
X141916481Y-100464755D01*
X141916431Y-100481569D01*
X141799913Y-100481569D01*
X141799914Y-100476379D01*
X141799956Y-100461655D01*
X141800078Y-100447282D01*
X141800317Y-100435820D01*
X141800715Y-100426595D01*
X141801312Y-100418930D01*
X141802153Y-100412151D01*
X141803277Y-100405581D01*
X141804726Y-100398545D01*
X141805727Y-100394116D01*
X141814323Y-100365456D01*
X141825955Y-100339616D01*
X141840580Y-100316634D01*
X141858154Y-100296547D01*
X141878635Y-100279391D01*
X141901977Y-100265205D01*
X141928139Y-100254025D01*
X141957076Y-100245890D01*
X141988745Y-100240835D01*
X141991125Y-100240618D01*
X141998331Y-100240187D01*
X142008354Y-100239821D01*
X142021344Y-100239518D01*
X142037447Y-100239277D01*
X142056813Y-100239096D01*
X142079589Y-100238975D01*
X142105924Y-100238913D01*
X142135966Y-100238907D01*
X142169864Y-100238958D01*
X142207765Y-100239063D01*
X142403948Y-100239714D01*
X142415142Y-100245913D01*
X142419447Y-100248599D01*
X142426448Y-100254200D01*
X142431374Y-100259725D01*
X142431714Y-100260233D01*
X142432959Y-100262011D01*
X142434104Y-100263637D01*
X142435151Y-100265284D01*
X142436107Y-100267122D01*
X142436974Y-100269326D01*
X142437757Y-100272066D01*
X142438461Y-100275514D01*
X142439090Y-100279844D01*
X142439647Y-100285227D01*
X142440137Y-100291835D01*
X142440565Y-100299841D01*
X142440934Y-100309417D01*
X142441249Y-100320734D01*
X142441515Y-100333965D01*
X142441734Y-100349282D01*
X142441788Y-100354625D01*
X142441913Y-100366858D01*
X142442054Y-100386864D01*
X142442162Y-100409472D01*
X142442242Y-100434856D01*
X142442297Y-100463186D01*
X142442332Y-100494635D01*
X142442351Y-100529376D01*
X142442359Y-100567580D01*
X142442359Y-100609419D01*
X142442356Y-100655066D01*
X142442354Y-100704693D01*
X142442356Y-100745552D01*
X142442363Y-100792203D01*
X142442368Y-100835011D01*
X142442368Y-100874146D01*
X142442355Y-100909778D01*
X142442326Y-100942079D01*
X142442274Y-100971217D01*
X142442195Y-100997365D01*
X142442083Y-101020691D01*
X142441933Y-101041366D01*
X142441813Y-101052624D01*
X142441739Y-101059562D01*
X142441497Y-101075447D01*
G37*
G36*
X146675704Y-100240535D02*
G01*
X146689158Y-100245278D01*
X146700551Y-100252848D01*
X146709325Y-100262909D01*
X146714921Y-100275121D01*
X146715176Y-100276227D01*
X146715510Y-100278544D01*
X146715816Y-100281900D01*
X146716095Y-100286459D01*
X146716349Y-100292386D01*
X146716580Y-100299844D01*
X146716787Y-100308996D01*
X146716972Y-100320007D01*
X146717136Y-100333040D01*
X146717281Y-100348260D01*
X146717407Y-100365830D01*
X146717516Y-100385913D01*
X146717608Y-100408674D01*
X146717686Y-100434277D01*
X146717749Y-100462884D01*
X146717800Y-100494661D01*
X146717839Y-100529771D01*
X146717867Y-100568378D01*
X146717886Y-100610645D01*
X146717896Y-100656736D01*
X146717899Y-100706816D01*
X146717899Y-101128246D01*
X146713127Y-101138601D01*
X146708597Y-101146924D01*
X146699904Y-101157106D01*
X146688758Y-101164246D01*
X146674628Y-101168759D01*
X146672492Y-101169143D01*
X146662514Y-101169834D01*
X146651244Y-101169350D01*
X146640472Y-101167834D01*
X146631992Y-101165424D01*
X146622238Y-101159615D01*
X146612988Y-101150546D01*
X146606052Y-101139665D01*
X146601643Y-101130322D01*
X146599567Y-100466634D01*
X146410650Y-100710107D01*
X146398340Y-100725972D01*
X146374956Y-100756111D01*
X146351452Y-100786409D01*
X146328049Y-100816578D01*
X146304970Y-100846333D01*
X146282436Y-100875386D01*
X146260671Y-100903451D01*
X146239896Y-100930242D01*
X146220333Y-100955472D01*
X146202205Y-100978855D01*
X146185734Y-101000103D01*
X146171142Y-101018931D01*
X146158651Y-101035052D01*
X146148484Y-101048179D01*
X146138616Y-101060894D01*
X146125260Y-101078007D01*
X146112602Y-101094118D01*
X146100905Y-101108899D01*
X146090429Y-101122024D01*
X146081436Y-101133165D01*
X146074187Y-101141995D01*
X146068945Y-101148187D01*
X146065971Y-101151413D01*
X146058981Y-101157394D01*
X146047665Y-101164430D01*
X146035599Y-101168326D01*
X146021534Y-101169591D01*
X146011220Y-101169186D01*
X145998254Y-101166611D01*
X145987489Y-101161401D01*
X145978104Y-101153247D01*
X145976530Y-101151637D01*
X145974940Y-101150144D01*
X145973482Y-101148763D01*
X145972150Y-101147325D01*
X145970938Y-101145658D01*
X145969841Y-101143592D01*
X145968853Y-101140957D01*
X145967968Y-101137581D01*
X145967181Y-101133295D01*
X145966486Y-101127927D01*
X145965878Y-101121307D01*
X145965350Y-101113265D01*
X145964898Y-101103629D01*
X145964515Y-101092230D01*
X145964196Y-101078896D01*
X145963935Y-101063458D01*
X145963727Y-101045744D01*
X145963565Y-101025584D01*
X145963445Y-101002807D01*
X145963361Y-100977243D01*
X145963306Y-100948721D01*
X145963276Y-100917070D01*
X145963264Y-100882121D01*
X145963266Y-100843702D01*
X145963275Y-100801642D01*
X145963285Y-100755772D01*
X145963292Y-100705920D01*
X145963294Y-100688399D01*
X145963308Y-100647434D01*
X145963334Y-100607603D01*
X145963371Y-100569107D01*
X145963419Y-100532148D01*
X145963477Y-100496926D01*
X145963545Y-100463644D01*
X145963622Y-100432501D01*
X145963707Y-100403699D01*
X145963799Y-100377440D01*
X145963898Y-100353925D01*
X145964004Y-100333354D01*
X145964116Y-100315929D01*
X145964233Y-100301852D01*
X145964354Y-100291323D01*
X145964479Y-100284544D01*
X145964608Y-100281715D01*
X145965605Y-100277882D01*
X145968526Y-100270545D01*
X145972370Y-100263224D01*
X145977479Y-100256177D01*
X145987533Y-100247563D01*
X146000193Y-100241980D01*
X146015709Y-100239292D01*
X146024917Y-100239037D01*
X146040833Y-100241092D01*
X146054427Y-100246410D01*
X146065522Y-100254909D01*
X146073939Y-100266505D01*
X146078488Y-100275006D01*
X146079526Y-100609398D01*
X146080564Y-100943789D01*
X146342141Y-100606643D01*
X146357546Y-100586795D01*
X146382961Y-100554074D01*
X146407711Y-100522245D01*
X146431669Y-100491466D01*
X146454711Y-100461897D01*
X146476712Y-100433698D01*
X146497547Y-100407027D01*
X146517090Y-100382045D01*
X146535218Y-100358911D01*
X146551804Y-100337785D01*
X146566724Y-100318825D01*
X146579853Y-100302192D01*
X146591065Y-100288045D01*
X146600236Y-100276543D01*
X146607241Y-100267847D01*
X146611954Y-100262114D01*
X146614251Y-100259506D01*
X146618048Y-100256046D01*
X146630162Y-100247136D01*
X146642413Y-100241664D01*
X146655708Y-100239183D01*
X146660748Y-100238960D01*
X146675704Y-100240535D01*
G37*
G36*
X148677346Y-100240987D02*
G01*
X148717108Y-100241017D01*
X148760764Y-100241073D01*
X148808443Y-100241154D01*
X149148909Y-100241790D01*
X149157471Y-100246370D01*
X149166487Y-100252317D01*
X149174508Y-100261066D01*
X149179764Y-100272041D01*
X149182451Y-100285679D01*
X149182766Y-100302417D01*
X149182470Y-100307605D01*
X149180771Y-100320756D01*
X149177608Y-100330950D01*
X149172666Y-100338981D01*
X149165630Y-100345645D01*
X149163508Y-100347248D01*
X149160729Y-100349191D01*
X149157821Y-100350858D01*
X149154473Y-100352269D01*
X149150377Y-100353445D01*
X149145224Y-100354409D01*
X149138703Y-100355181D01*
X149130505Y-100355783D01*
X149120321Y-100356236D01*
X149107841Y-100356560D01*
X149092757Y-100356778D01*
X149074758Y-100356911D01*
X149053535Y-100356979D01*
X149028780Y-100357004D01*
X149000181Y-100357008D01*
X148861456Y-100357008D01*
X148860899Y-100743813D01*
X148860343Y-101130617D01*
X148854083Y-101142857D01*
X148853111Y-101144675D01*
X148844627Y-101155877D01*
X148833494Y-101163887D01*
X148819768Y-101168663D01*
X148812276Y-101169628D01*
X148800534Y-101169758D01*
X148788345Y-101168705D01*
X148777675Y-101166568D01*
X148771104Y-101163722D01*
X148762200Y-101157297D01*
X148754228Y-101148900D01*
X148748425Y-101139665D01*
X148744087Y-101130322D01*
X148742995Y-100357008D01*
X148596546Y-100357008D01*
X148568547Y-100357005D01*
X148544321Y-100356975D01*
X148523562Y-100356890D01*
X148505969Y-100356723D01*
X148491238Y-100356446D01*
X148479065Y-100356032D01*
X148469147Y-100355453D01*
X148461182Y-100354681D01*
X148454865Y-100353689D01*
X148449894Y-100352450D01*
X148445966Y-100350935D01*
X148442776Y-100349118D01*
X148440022Y-100346970D01*
X148437401Y-100344464D01*
X148434609Y-100341572D01*
X148430496Y-100336741D01*
X148424609Y-100326158D01*
X148421328Y-100313426D01*
X148420424Y-100297842D01*
X148420514Y-100293836D01*
X148421643Y-100281169D01*
X148424311Y-100271173D01*
X148428898Y-100262790D01*
X148435782Y-100254961D01*
X148442503Y-100249095D01*
X148449118Y-100245243D01*
X148456868Y-100242906D01*
X148457121Y-100242857D01*
X148460189Y-100242530D01*
X148465608Y-100242236D01*
X148473505Y-100241975D01*
X148484009Y-100241745D01*
X148497248Y-100241548D01*
X148513353Y-100241380D01*
X148532451Y-100241243D01*
X148554671Y-100241136D01*
X148580142Y-100241057D01*
X148608992Y-100241006D01*
X148641351Y-100240983D01*
X148677346Y-100240987D01*
G37*
G36*
X145015818Y-96421056D02*
G01*
X145044373Y-96426222D01*
X145071643Y-96434604D01*
X145097288Y-96446082D01*
X145120970Y-96460536D01*
X145142348Y-96477844D01*
X145161086Y-96497888D01*
X145176843Y-96520547D01*
X145178518Y-96523534D01*
X145183019Y-96532584D01*
X145187701Y-96543129D01*
X145191785Y-96553453D01*
X145193042Y-96556970D01*
X145195616Y-96564260D01*
X145199414Y-96575058D01*
X145204375Y-96589192D01*
X145210438Y-96606487D01*
X145217543Y-96626772D01*
X145225631Y-96649874D01*
X145234640Y-96675620D01*
X145244510Y-96703838D01*
X145255181Y-96734353D01*
X145266594Y-96766995D01*
X145278686Y-96801590D01*
X145291399Y-96837966D01*
X145304671Y-96875949D01*
X145318443Y-96915367D01*
X145332654Y-96956047D01*
X145347245Y-96997817D01*
X145362154Y-97040504D01*
X145377321Y-97083934D01*
X145392686Y-97127936D01*
X145408189Y-97172337D01*
X145423769Y-97216963D01*
X145439367Y-97261643D01*
X145454921Y-97306203D01*
X145470372Y-97350471D01*
X145485660Y-97394274D01*
X145500723Y-97437439D01*
X145515502Y-97479793D01*
X145529936Y-97521165D01*
X145543965Y-97561380D01*
X145557529Y-97600267D01*
X145570568Y-97637652D01*
X145583020Y-97673363D01*
X145594827Y-97707228D01*
X145605927Y-97739072D01*
X145616260Y-97768725D01*
X145625767Y-97796012D01*
X145634386Y-97820762D01*
X145642057Y-97842801D01*
X145648720Y-97861957D01*
X145654316Y-97878057D01*
X145658782Y-97890928D01*
X145662060Y-97900398D01*
X145664089Y-97906294D01*
X145664808Y-97908443D01*
X145663620Y-97909845D01*
X145659423Y-97913659D01*
X145652445Y-97919643D01*
X145642940Y-97927589D01*
X145631164Y-97937287D01*
X145617373Y-97948528D01*
X145601820Y-97961103D01*
X145584762Y-97974805D01*
X145566454Y-97989423D01*
X145547150Y-98004749D01*
X145529721Y-98018518D01*
X145511238Y-98033049D01*
X145493929Y-98046587D01*
X145478053Y-98058930D01*
X145463869Y-98069881D01*
X145451636Y-98079239D01*
X145441613Y-98086806D01*
X145434059Y-98092382D01*
X145429235Y-98095770D01*
X145427397Y-98096768D01*
X145427016Y-98095832D01*
X145425329Y-98091259D01*
X145422350Y-98083015D01*
X145418134Y-98071248D01*
X145412731Y-98056106D01*
X145406194Y-98037737D01*
X145398575Y-98016289D01*
X145389927Y-97991909D01*
X145380302Y-97964746D01*
X145369752Y-97934947D01*
X145358330Y-97902660D01*
X145346088Y-97868033D01*
X145333078Y-97831215D01*
X145319353Y-97792352D01*
X145304965Y-97751594D01*
X145289965Y-97709087D01*
X145274408Y-97664980D01*
X145258344Y-97619420D01*
X145241826Y-97572555D01*
X145224907Y-97524534D01*
X145207638Y-97475504D01*
X145196502Y-97443883D01*
X145179421Y-97395397D01*
X145162711Y-97347985D01*
X145146427Y-97301795D01*
X145130620Y-97256978D01*
X145115344Y-97213683D01*
X145100652Y-97172060D01*
X145086596Y-97132259D01*
X145073229Y-97094428D01*
X145060605Y-97058719D01*
X145048777Y-97025280D01*
X145037797Y-96994261D01*
X145027718Y-96965812D01*
X145018593Y-96940082D01*
X145010476Y-96917222D01*
X145003418Y-96897380D01*
X144997474Y-96880707D01*
X144992696Y-96867352D01*
X144989137Y-96857465D01*
X144986849Y-96851195D01*
X144985887Y-96848692D01*
X144984872Y-96846754D01*
X144980430Y-96840692D01*
X144976065Y-96838540D01*
X144971961Y-96840406D01*
X144971947Y-96840422D01*
X144970819Y-96842902D01*
X144968459Y-96849050D01*
X144964956Y-96858606D01*
X144960401Y-96871312D01*
X144954884Y-96886908D01*
X144948496Y-96905134D01*
X144941327Y-96925733D01*
X144933467Y-96948445D01*
X144925008Y-96973010D01*
X144916040Y-96999170D01*
X144906652Y-97026666D01*
X144896936Y-97055238D01*
X144896423Y-97056750D01*
X144886768Y-97085194D01*
X144877495Y-97112505D01*
X144868689Y-97138427D01*
X144860439Y-97162706D01*
X144852829Y-97185088D01*
X144845947Y-97205318D01*
X144839880Y-97223142D01*
X144834713Y-97238306D01*
X144830534Y-97250555D01*
X144827429Y-97259635D01*
X144825484Y-97265292D01*
X144824787Y-97267272D01*
X144823910Y-97267334D01*
X144819384Y-97267363D01*
X144811363Y-97267313D01*
X144800249Y-97267190D01*
X144786446Y-97267003D01*
X144770354Y-97266760D01*
X144752376Y-97266469D01*
X144732916Y-97266136D01*
X144712374Y-97265770D01*
X144691153Y-97265378D01*
X144669655Y-97264968D01*
X144648283Y-97264549D01*
X144627439Y-97264126D01*
X144607525Y-97263709D01*
X144588944Y-97263305D01*
X144572097Y-97262922D01*
X144557387Y-97262567D01*
X144545216Y-97262248D01*
X144535987Y-97261972D01*
X144530102Y-97261748D01*
X144527962Y-97261584D01*
X144527957Y-97261535D01*
X144528625Y-97258990D01*
X144530495Y-97252781D01*
X144533485Y-97243157D01*
X144537514Y-97230368D01*
X144542501Y-97214663D01*
X144548364Y-97196293D01*
X144555024Y-97175506D01*
X144562398Y-97152553D01*
X144570406Y-97127682D01*
X144578966Y-97101143D01*
X144587998Y-97073186D01*
X144597420Y-97044060D01*
X144607152Y-97014015D01*
X144617112Y-96983300D01*
X144627219Y-96952165D01*
X144637392Y-96920859D01*
X144647550Y-96889632D01*
X144657612Y-96858733D01*
X144667497Y-96828413D01*
X144677123Y-96798919D01*
X144686411Y-96770503D01*
X144695277Y-96743413D01*
X144703643Y-96717899D01*
X144711426Y-96694211D01*
X144718545Y-96672597D01*
X144724919Y-96653308D01*
X144730468Y-96636593D01*
X144735110Y-96622702D01*
X144738763Y-96611884D01*
X144741348Y-96604389D01*
X144742783Y-96600466D01*
X144757873Y-96566984D01*
X144774917Y-96536557D01*
X144793713Y-96509805D01*
X144814343Y-96486644D01*
X144836891Y-96466995D01*
X144861440Y-96450774D01*
X144888071Y-96437900D01*
X144916868Y-96428291D01*
X144925822Y-96426057D01*
X144956203Y-96420854D01*
X144986315Y-96419227D01*
X145015818Y-96421056D01*
G37*
G36*
X143304425Y-100897070D02*
G01*
X143316355Y-100926477D01*
X143327622Y-100954271D01*
X143338137Y-100980232D01*
X143347811Y-101004144D01*
X143356556Y-101025789D01*
X143364283Y-101044949D01*
X143370903Y-101061407D01*
X143376327Y-101074944D01*
X143380468Y-101085344D01*
X143383237Y-101092388D01*
X143384544Y-101095859D01*
X143384742Y-101096469D01*
X143386445Y-101105544D01*
X143386815Y-101116244D01*
X143385892Y-101126704D01*
X143383715Y-101135060D01*
X143378523Y-101144062D01*
X143368716Y-101153767D01*
X143355369Y-101161653D01*
X143338642Y-101167604D01*
X143336600Y-101168150D01*
X143329211Y-101169899D01*
X143323526Y-101170498D01*
X143317687Y-101170004D01*
X143309837Y-101168473D01*
X143307460Y-101167917D01*
X143301017Y-101165605D01*
X143295151Y-101161770D01*
X143288348Y-101155498D01*
X143285929Y-101153020D01*
X143283731Y-101150534D01*
X143281612Y-101147707D01*
X143279414Y-101144187D01*
X143276973Y-101139622D01*
X143274130Y-101133659D01*
X143270724Y-101125948D01*
X143266595Y-101116136D01*
X143261580Y-101103871D01*
X143255520Y-101088801D01*
X143248254Y-101070574D01*
X143239620Y-101048839D01*
X143201507Y-100952824D01*
X142777377Y-100952824D01*
X142741358Y-101040535D01*
X142733375Y-101059957D01*
X142725140Y-101079934D01*
X142718199Y-101096664D01*
X142712406Y-101110473D01*
X142707613Y-101121686D01*
X142703673Y-101130631D01*
X142700439Y-101137632D01*
X142697762Y-101143017D01*
X142695497Y-101147110D01*
X142693496Y-101150239D01*
X142691611Y-101152729D01*
X142689695Y-101154906D01*
X142684322Y-101159754D01*
X142672963Y-101166012D01*
X142659949Y-101169218D01*
X142645998Y-101169396D01*
X142631827Y-101166572D01*
X142618153Y-101160769D01*
X142605692Y-101152013D01*
X142598572Y-101144611D01*
X142593070Y-101135141D01*
X142590388Y-101123988D01*
X142590174Y-101110209D01*
X142590208Y-101109671D01*
X142590385Y-101107796D01*
X142590704Y-101105691D01*
X142591228Y-101103200D01*
X142592020Y-101100167D01*
X142593143Y-101096435D01*
X142594660Y-101091846D01*
X142596634Y-101086243D01*
X142599127Y-101079471D01*
X142602202Y-101071372D01*
X142605923Y-101061789D01*
X142610351Y-101050566D01*
X142615550Y-101037545D01*
X142621583Y-101022570D01*
X142628513Y-101005483D01*
X142636401Y-100986129D01*
X142645312Y-100964350D01*
X142655308Y-100939989D01*
X142666452Y-100912890D01*
X142678806Y-100882895D01*
X142692435Y-100849849D01*
X142697917Y-100836567D01*
X142824582Y-100836567D01*
X142989504Y-100836567D01*
X142998790Y-100836564D01*
X143024152Y-100836532D01*
X143048169Y-100836465D01*
X143070529Y-100836365D01*
X143090921Y-100836236D01*
X143109033Y-100836080D01*
X143124552Y-100835901D01*
X143137168Y-100835702D01*
X143146567Y-100835485D01*
X143152437Y-100835253D01*
X143154468Y-100835010D01*
X143154467Y-100834991D01*
X143153673Y-100832616D01*
X143151484Y-100826721D01*
X143148020Y-100817613D01*
X143143404Y-100805602D01*
X143137756Y-100790994D01*
X143131197Y-100774097D01*
X143123848Y-100755219D01*
X143115830Y-100734669D01*
X143107264Y-100712753D01*
X143098271Y-100689780D01*
X143088971Y-100666058D01*
X143079487Y-100641894D01*
X143069938Y-100617597D01*
X143060446Y-100593473D01*
X143051132Y-100569832D01*
X143042117Y-100546980D01*
X143033522Y-100525226D01*
X143025467Y-100504878D01*
X143018074Y-100486243D01*
X143011463Y-100469629D01*
X143005757Y-100455344D01*
X143001075Y-100443696D01*
X142997538Y-100434993D01*
X142995268Y-100429543D01*
X142994386Y-100427653D01*
X142993803Y-100428738D01*
X142991715Y-100433388D01*
X142988207Y-100441505D01*
X142983369Y-100452876D01*
X142977289Y-100467286D01*
X142970055Y-100484523D01*
X142961756Y-100504374D01*
X142952481Y-100526625D01*
X142942319Y-100551063D01*
X142931358Y-100577475D01*
X142919686Y-100605648D01*
X142907393Y-100635368D01*
X142894567Y-100666423D01*
X142881297Y-100698598D01*
X142867671Y-100731681D01*
X142853778Y-100765459D01*
X142839707Y-100799718D01*
X142824582Y-100836567D01*
X142697917Y-100836567D01*
X142707399Y-100813593D01*
X142723763Y-100773971D01*
X142741589Y-100730826D01*
X142760939Y-100684002D01*
X142776751Y-100645765D01*
X142792741Y-100607140D01*
X142808278Y-100569651D01*
X142823287Y-100533479D01*
X142837693Y-100498803D01*
X142851420Y-100465804D01*
X142864394Y-100434661D01*
X142876538Y-100405556D01*
X142887777Y-100378668D01*
X142898037Y-100354177D01*
X142907241Y-100332264D01*
X142915315Y-100313108D01*
X142922183Y-100296891D01*
X142927770Y-100283791D01*
X142932001Y-100273989D01*
X142934799Y-100267666D01*
X142936091Y-100265002D01*
X142941656Y-100258181D01*
X142952610Y-100249557D01*
X142965855Y-100243255D01*
X142980484Y-100239667D01*
X142995588Y-100239188D01*
X143011752Y-100242372D01*
X143026616Y-100249254D01*
X143039330Y-100259531D01*
X143049460Y-100272930D01*
X143049499Y-100273002D01*
X143050763Y-100275847D01*
X143053491Y-100282301D01*
X143057593Y-100292148D01*
X143062982Y-100305170D01*
X143069569Y-100321149D01*
X143077265Y-100339867D01*
X143085982Y-100361106D01*
X143095631Y-100384650D01*
X143106122Y-100410280D01*
X143117369Y-100437778D01*
X143129282Y-100466928D01*
X143141771Y-100497511D01*
X143154750Y-100529309D01*
X143168129Y-100562106D01*
X143181819Y-100595683D01*
X143195733Y-100629822D01*
X143209780Y-100664306D01*
X143223873Y-100698918D01*
X143237923Y-100733439D01*
X143251841Y-100767652D01*
X143265539Y-100801339D01*
X143278928Y-100834283D01*
X143279223Y-100835010D01*
X143291920Y-100866266D01*
X143304425Y-100897070D01*
G37*
G36*
X148071328Y-100238677D02*
G01*
X148100388Y-100238700D01*
X148126095Y-100238750D01*
X148148672Y-100238838D01*
X148168339Y-100238972D01*
X148185317Y-100239163D01*
X148199828Y-100239421D01*
X148212093Y-100239755D01*
X148222332Y-100240175D01*
X148230768Y-100240691D01*
X148237620Y-100241313D01*
X148243111Y-100242051D01*
X148247461Y-100242914D01*
X148250892Y-100243912D01*
X148253625Y-100245055D01*
X148255880Y-100246353D01*
X148257879Y-100247815D01*
X148259843Y-100249452D01*
X148261993Y-100251273D01*
X148263794Y-100252875D01*
X148269786Y-100259500D01*
X148274449Y-100266384D01*
X148279060Y-100275006D01*
X148279672Y-100699550D01*
X148279722Y-100736658D01*
X148279779Y-100787511D01*
X148279815Y-100834390D01*
X148279831Y-100877399D01*
X148279825Y-100916645D01*
X148279798Y-100952233D01*
X148279749Y-100984268D01*
X148279677Y-101012856D01*
X148279582Y-101038101D01*
X148279464Y-101060110D01*
X148279322Y-101078987D01*
X148279157Y-101094839D01*
X148278966Y-101107770D01*
X148278751Y-101117886D01*
X148278510Y-101125293D01*
X148278243Y-101130095D01*
X148277950Y-101132398D01*
X148272468Y-101145130D01*
X148263663Y-101155925D01*
X148252116Y-101163882D01*
X148238273Y-101168597D01*
X148235517Y-101168802D01*
X148228763Y-101169014D01*
X148218357Y-101169212D01*
X148204558Y-101169394D01*
X148187629Y-101169559D01*
X148167829Y-101169705D01*
X148145419Y-101169831D01*
X148120662Y-101169935D01*
X148093816Y-101170016D01*
X148065143Y-101170073D01*
X148034905Y-101170104D01*
X148003361Y-101170107D01*
X147970772Y-101170082D01*
X147712309Y-101169767D01*
X147700355Y-101163897D01*
X147695481Y-101161228D01*
X147684958Y-101152681D01*
X147677585Y-101141709D01*
X147673247Y-101128099D01*
X147671827Y-101111638D01*
X147672032Y-101105003D01*
X147674553Y-101089656D01*
X147680036Y-101077079D01*
X147688598Y-101067058D01*
X147700355Y-101059380D01*
X147712309Y-101053510D01*
X147938075Y-101052938D01*
X148163841Y-101052365D01*
X148163841Y-100759939D01*
X148019040Y-100759328D01*
X147874238Y-100758716D01*
X147862283Y-100752846D01*
X147855912Y-100749242D01*
X147845977Y-100740658D01*
X147839080Y-100729703D01*
X147835060Y-100716078D01*
X147833756Y-100699481D01*
X147833889Y-100694369D01*
X147836353Y-100678732D01*
X147841943Y-100665808D01*
X147850683Y-100655551D01*
X147862598Y-100647918D01*
X147874238Y-100642460D01*
X148019040Y-100641874D01*
X148163841Y-100641287D01*
X148163841Y-100354932D01*
X147938855Y-100354932D01*
X147923228Y-100354933D01*
X147888555Y-100354937D01*
X147857701Y-100354934D01*
X147830428Y-100354911D01*
X147806501Y-100354857D01*
X147785685Y-100354759D01*
X147767743Y-100354605D01*
X147752440Y-100354382D01*
X147739540Y-100354078D01*
X147728807Y-100353680D01*
X147720006Y-100353178D01*
X147712899Y-100352557D01*
X147707252Y-100351806D01*
X147702829Y-100350913D01*
X147699394Y-100349864D01*
X147696710Y-100348649D01*
X147694543Y-100347254D01*
X147692656Y-100345667D01*
X147690813Y-100343876D01*
X147688780Y-100341869D01*
X147683662Y-100336553D01*
X147678343Y-100329122D01*
X147675035Y-100320916D01*
X147673341Y-100310837D01*
X147672865Y-100297786D01*
X147672901Y-100291630D01*
X147673230Y-100283306D01*
X147674077Y-100277195D01*
X147675653Y-100272060D01*
X147678168Y-100266665D01*
X147679352Y-100264506D01*
X147687808Y-100253756D01*
X147698763Y-100245660D01*
X147711284Y-100240943D01*
X147713506Y-100240661D01*
X147719435Y-100240306D01*
X147728753Y-100239987D01*
X147741539Y-100239705D01*
X147757868Y-100239459D01*
X147777815Y-100239247D01*
X147801458Y-100239070D01*
X147828872Y-100238926D01*
X147860134Y-100238815D01*
X147895319Y-100238737D01*
X147934503Y-100238691D01*
X147977764Y-100238676D01*
X148002269Y-100238674D01*
X148038696Y-100238672D01*
X148071328Y-100238677D01*
G37*
G36*
X141601850Y-100669724D02*
G01*
X141601901Y-100697569D01*
X141601892Y-100725489D01*
X141601823Y-100753099D01*
X141601694Y-100780016D01*
X141601504Y-100805855D01*
X141601254Y-100830233D01*
X141600943Y-100852764D01*
X141600572Y-100873064D01*
X141600139Y-100890750D01*
X141599646Y-100905437D01*
X141599092Y-100916741D01*
X141598476Y-100924278D01*
X141593568Y-100957076D01*
X141586615Y-100987494D01*
X141577543Y-101015209D01*
X141566177Y-101040752D01*
X141552341Y-101064654D01*
X141545725Y-101073576D01*
X141536106Y-101084545D01*
X141524855Y-101095992D01*
X141512933Y-101106991D01*
X141501301Y-101116615D01*
X141490920Y-101123937D01*
X141468532Y-101136282D01*
X141439803Y-101148288D01*
X141408253Y-101157664D01*
X141373712Y-101164461D01*
X141336012Y-101168727D01*
X141335898Y-101168736D01*
X141328200Y-101169134D01*
X141317095Y-101169451D01*
X141303053Y-101169691D01*
X141286549Y-101169856D01*
X141268054Y-101169950D01*
X141248041Y-101169976D01*
X141226983Y-101169939D01*
X141205351Y-101169840D01*
X141183620Y-101169684D01*
X141162260Y-101169474D01*
X141141744Y-101169213D01*
X141122545Y-101168905D01*
X141105136Y-101168553D01*
X141089989Y-101168160D01*
X141077576Y-101167730D01*
X141068371Y-101167266D01*
X141062844Y-101166772D01*
X141058032Y-101166059D01*
X141023314Y-101159528D01*
X140992038Y-101151015D01*
X140963971Y-101140420D01*
X140938877Y-101127641D01*
X140916522Y-101112576D01*
X140896669Y-101095124D01*
X140883763Y-101080971D01*
X140867336Y-101058300D01*
X140853492Y-101032879D01*
X140842177Y-101004570D01*
X140833339Y-100973234D01*
X140826924Y-100938731D01*
X140822880Y-100900923D01*
X140822763Y-100899134D01*
X140822358Y-100889776D01*
X140822019Y-100876437D01*
X140821746Y-100859252D01*
X140821539Y-100838356D01*
X140821400Y-100813884D01*
X140821330Y-100785972D01*
X140821329Y-100754754D01*
X140821399Y-100720366D01*
X140821439Y-100709628D01*
X140939254Y-100709628D01*
X140939280Y-100736199D01*
X140939344Y-100762331D01*
X140939446Y-100787652D01*
X140939585Y-100811792D01*
X140939763Y-100834379D01*
X140939978Y-100855041D01*
X140940231Y-100873407D01*
X140940522Y-100889107D01*
X140940851Y-100901769D01*
X140941218Y-100911021D01*
X140941623Y-100916493D01*
X140946036Y-100942685D01*
X140952814Y-100966409D01*
X140962006Y-100986870D01*
X140973777Y-101004233D01*
X140988293Y-101018659D01*
X141005717Y-101030312D01*
X141026215Y-101039354D01*
X141049952Y-101045949D01*
X141077093Y-101050260D01*
X141078252Y-101050373D01*
X141085342Y-101050797D01*
X141095929Y-101051165D01*
X141109535Y-101051476D01*
X141125682Y-101051731D01*
X141143893Y-101051930D01*
X141163689Y-101052074D01*
X141184592Y-101052163D01*
X141206124Y-101052197D01*
X141227807Y-101052176D01*
X141249162Y-101052101D01*
X141269713Y-101051973D01*
X141288980Y-101051791D01*
X141306486Y-101051555D01*
X141321752Y-101051267D01*
X141334301Y-101050926D01*
X141343654Y-101050532D01*
X141349334Y-101050087D01*
X141359498Y-101048583D01*
X141380023Y-101044305D01*
X141398812Y-101038732D01*
X141414682Y-101032188D01*
X141425353Y-101026085D01*
X141441396Y-101013233D01*
X141455080Y-100997359D01*
X141466037Y-100978922D01*
X141473900Y-100958380D01*
X141475298Y-100953503D01*
X141476776Y-100948116D01*
X141478073Y-100942876D01*
X141479203Y-100937496D01*
X141480179Y-100931691D01*
X141481015Y-100925172D01*
X141481724Y-100917655D01*
X141482319Y-100908851D01*
X141482813Y-100898475D01*
X141483220Y-100886240D01*
X141483553Y-100871859D01*
X141483825Y-100855045D01*
X141484050Y-100835513D01*
X141484241Y-100812975D01*
X141484410Y-100787145D01*
X141484572Y-100757736D01*
X141484740Y-100724462D01*
X141484897Y-100688667D01*
X141484998Y-100654534D01*
X141485031Y-100624260D01*
X141484994Y-100597692D01*
X141484887Y-100574681D01*
X141484708Y-100555075D01*
X141484457Y-100538722D01*
X141484132Y-100525473D01*
X141483733Y-100515175D01*
X141483257Y-100507678D01*
X141482840Y-100502979D01*
X141479065Y-100474701D01*
X141473297Y-100449960D01*
X141465352Y-100428570D01*
X141455045Y-100410347D01*
X141442191Y-100395103D01*
X141426604Y-100382655D01*
X141408099Y-100372815D01*
X141386493Y-100365399D01*
X141361599Y-100360220D01*
X141333233Y-100357093D01*
X141325174Y-100356635D01*
X141311803Y-100356142D01*
X141295407Y-100355743D01*
X141276616Y-100355436D01*
X141256058Y-100355224D01*
X141234360Y-100355105D01*
X141212151Y-100355082D01*
X141190058Y-100355153D01*
X141168710Y-100355320D01*
X141148734Y-100355582D01*
X141130759Y-100355941D01*
X141115412Y-100356397D01*
X141103322Y-100356949D01*
X141097265Y-100357331D01*
X141075464Y-100359271D01*
X141056568Y-100362010D01*
X141039616Y-100365712D01*
X141023647Y-100370540D01*
X141006592Y-100377898D01*
X140989506Y-100389143D01*
X140974989Y-100403466D01*
X140962990Y-100420939D01*
X140953462Y-100441636D01*
X140946356Y-100465628D01*
X140941623Y-100492987D01*
X140941470Y-100494530D01*
X140941079Y-100501431D01*
X140940726Y-100511976D01*
X140940411Y-100525794D01*
X140940134Y-100542514D01*
X140939895Y-100561765D01*
X140939693Y-100583176D01*
X140939530Y-100606375D01*
X140939404Y-100630991D01*
X140939316Y-100656652D01*
X140939266Y-100682988D01*
X140939254Y-100709628D01*
X140821439Y-100709628D01*
X140821539Y-100682942D01*
X140821558Y-100678782D01*
X140821711Y-100645612D01*
X140821864Y-100616259D01*
X140822031Y-100590426D01*
X140822228Y-100567812D01*
X140822470Y-100548118D01*
X140822772Y-100531045D01*
X140823150Y-100516295D01*
X140823619Y-100503568D01*
X140824194Y-100492564D01*
X140824891Y-100482986D01*
X140825725Y-100474533D01*
X140826711Y-100466907D01*
X140827864Y-100459808D01*
X140829201Y-100452938D01*
X140830736Y-100445997D01*
X140832484Y-100438686D01*
X140834461Y-100430707D01*
X140840675Y-100408835D01*
X140851929Y-100379346D01*
X140865813Y-100352846D01*
X140882410Y-100329273D01*
X140901802Y-100308560D01*
X140924073Y-100290645D01*
X140949307Y-100275464D01*
X140977586Y-100262952D01*
X141008994Y-100253046D01*
X141043614Y-100245682D01*
X141081528Y-100240795D01*
X141088979Y-100240318D01*
X141100098Y-100239902D01*
X141114335Y-100239548D01*
X141131172Y-100239258D01*
X141150089Y-100239032D01*
X141170569Y-100238869D01*
X141192093Y-100238769D01*
X141214143Y-100238734D01*
X141236200Y-100238762D01*
X141257746Y-100238854D01*
X141278262Y-100239010D01*
X141297231Y-100239230D01*
X141314133Y-100239515D01*
X141328450Y-100239863D01*
X141339665Y-100240276D01*
X141347258Y-100240753D01*
X141377394Y-100244459D01*
X141412280Y-100251578D01*
X141444103Y-100261491D01*
X141472898Y-100274230D01*
X141498699Y-100289829D01*
X141521539Y-100308320D01*
X141541454Y-100329737D01*
X141558477Y-100354111D01*
X141572642Y-100381476D01*
X141583984Y-100411865D01*
X141592537Y-100445310D01*
X141598335Y-100481845D01*
X141598712Y-100485892D01*
X141599297Y-100495772D01*
X141599824Y-100509184D01*
X141600291Y-100525746D01*
X141600700Y-100545073D01*
X141601049Y-100566779D01*
X141601339Y-100590482D01*
X141601569Y-100615796D01*
X141601623Y-100624260D01*
X141601739Y-100642339D01*
X141601850Y-100669724D01*
G37*
G36*
X143992936Y-100239012D02*
G01*
X144008513Y-100241759D01*
X144021185Y-100247343D01*
X144031116Y-100255850D01*
X144038468Y-100267365D01*
X144043997Y-100279158D01*
X144044605Y-100692284D01*
X144044616Y-100700441D01*
X144044686Y-100756867D01*
X144044727Y-100809164D01*
X144044741Y-100857351D01*
X144044727Y-100901448D01*
X144044686Y-100941475D01*
X144044616Y-100977453D01*
X144044519Y-101009399D01*
X144044393Y-101037335D01*
X144044239Y-101061281D01*
X144044058Y-101081255D01*
X144043847Y-101097278D01*
X144043609Y-101109370D01*
X144043342Y-101117550D01*
X144043046Y-101121838D01*
X144040745Y-101133549D01*
X144035417Y-101146857D01*
X144027470Y-101157035D01*
X144016777Y-101164232D01*
X144003210Y-101168599D01*
X144002783Y-101168659D01*
X143998552Y-101168891D01*
X143990514Y-101169109D01*
X143978944Y-101169310D01*
X143964120Y-101169492D01*
X143946318Y-101169655D01*
X143925813Y-101169795D01*
X143902882Y-101169912D01*
X143877802Y-101170004D01*
X143850848Y-101170069D01*
X143822298Y-101170105D01*
X143792426Y-101170111D01*
X143761511Y-101170084D01*
X143528850Y-101169767D01*
X143516611Y-101163507D01*
X143516260Y-101163326D01*
X143505235Y-101155574D01*
X143497264Y-101145314D01*
X143492300Y-101132419D01*
X143490293Y-101116764D01*
X143491194Y-101098225D01*
X143493011Y-101088306D01*
X143497840Y-101076447D01*
X143505586Y-101067118D01*
X143516610Y-101059770D01*
X143528849Y-101053510D01*
X143926649Y-101052352D01*
X143927194Y-100664717D01*
X143927740Y-100277082D01*
X143932065Y-100267740D01*
X143934407Y-100263322D01*
X143942998Y-100252899D01*
X143954425Y-100245157D01*
X143968257Y-100240336D01*
X143984067Y-100238676D01*
X143992936Y-100239012D01*
G37*
G36*
X149651812Y-100239722D02*
G01*
X149674766Y-100239755D01*
X149694269Y-100239822D01*
X149710686Y-100239934D01*
X149724383Y-100240099D01*
X149735725Y-100240327D01*
X149745078Y-100240628D01*
X149752808Y-100241012D01*
X149759279Y-100241487D01*
X149764859Y-100242063D01*
X149769912Y-100242750D01*
X149774804Y-100243558D01*
X149785032Y-100245504D01*
X149816086Y-100253408D01*
X149843865Y-100263805D01*
X149868477Y-100276797D01*
X149890032Y-100292490D01*
X149908640Y-100310984D01*
X149924410Y-100332386D01*
X149937450Y-100356797D01*
X149947869Y-100384322D01*
X149955778Y-100415063D01*
X149956559Y-100419321D01*
X149958199Y-100431868D01*
X149959540Y-100447215D01*
X149960555Y-100464420D01*
X149961214Y-100482539D01*
X149961490Y-100500630D01*
X149961353Y-100517750D01*
X149960776Y-100532956D01*
X149959728Y-100545306D01*
X149956144Y-100568906D01*
X149948892Y-100599767D01*
X149939060Y-100627469D01*
X149926580Y-100652121D01*
X149911386Y-100673828D01*
X149893411Y-100692699D01*
X149872586Y-100708841D01*
X149848847Y-100722359D01*
X149845129Y-100724131D01*
X149821873Y-100733660D01*
X149797374Y-100740948D01*
X149770305Y-100746400D01*
X149766741Y-100746929D01*
X149760929Y-100747614D01*
X149754006Y-100748216D01*
X149745634Y-100748746D01*
X149735476Y-100749216D01*
X149723194Y-100749638D01*
X149708449Y-100750021D01*
X149690904Y-100750377D01*
X149670220Y-100750717D01*
X149646061Y-100751053D01*
X149618087Y-100751395D01*
X149592284Y-100751700D01*
X149569291Y-100751989D01*
X149549774Y-100752266D01*
X149533390Y-100752543D01*
X149519795Y-100752834D01*
X149508645Y-100753154D01*
X149499596Y-100753515D01*
X149492305Y-100753933D01*
X149486427Y-100754420D01*
X149481619Y-100754990D01*
X149477537Y-100755658D01*
X149473838Y-100756436D01*
X149470177Y-100757340D01*
X149450268Y-100763797D01*
X149433152Y-100772471D01*
X149419160Y-100783520D01*
X149407961Y-100797272D01*
X149399226Y-100814054D01*
X149392623Y-100834193D01*
X149391530Y-100838861D01*
X149388908Y-100854892D01*
X149387166Y-100873563D01*
X149386310Y-100893813D01*
X149386346Y-100914584D01*
X149387280Y-100934818D01*
X149389117Y-100953453D01*
X149391864Y-100969432D01*
X149392311Y-100971372D01*
X149398638Y-100991262D01*
X149407546Y-101008045D01*
X149419224Y-101021904D01*
X149433861Y-101033021D01*
X149451645Y-101041579D01*
X149472767Y-101047760D01*
X149476264Y-101048470D01*
X149480129Y-101049088D01*
X149484648Y-101049615D01*
X149490137Y-101050057D01*
X149496916Y-101050423D01*
X149505303Y-101050718D01*
X149515615Y-101050951D01*
X149528170Y-101051129D01*
X149543287Y-101051258D01*
X149561284Y-101051346D01*
X149582479Y-101051400D01*
X149607189Y-101051427D01*
X149635733Y-101051434D01*
X149662355Y-101051429D01*
X149688687Y-101051400D01*
X149711479Y-101051329D01*
X149731057Y-101051195D01*
X149747745Y-101050979D01*
X149761866Y-101050663D01*
X149773747Y-101050228D01*
X149783710Y-101049653D01*
X149792082Y-101048920D01*
X149799185Y-101048011D01*
X149805346Y-101046904D01*
X149810887Y-101045583D01*
X149816134Y-101044026D01*
X149821411Y-101042216D01*
X149827043Y-101040132D01*
X149832308Y-101037933D01*
X149847568Y-101028703D01*
X149860405Y-101016335D01*
X149870460Y-101001233D01*
X149877375Y-100983796D01*
X149879182Y-100977412D01*
X149882229Y-100966664D01*
X149885016Y-100956851D01*
X149886282Y-100952717D01*
X149892424Y-100938761D01*
X149900649Y-100928271D01*
X149911240Y-100921035D01*
X149924484Y-100916840D01*
X149940666Y-100915476D01*
X149944010Y-100915496D01*
X149956704Y-100916247D01*
X149966671Y-100918310D01*
X149974986Y-100921994D01*
X149982725Y-100927610D01*
X149986705Y-100931407D01*
X149993701Y-100941301D01*
X149997842Y-100953158D01*
X149999169Y-100967279D01*
X149997728Y-100983965D01*
X149993559Y-101003517D01*
X149985042Y-101030579D01*
X149973142Y-101057344D01*
X149958494Y-101081145D01*
X149941035Y-101102029D01*
X149920704Y-101120043D01*
X149897438Y-101135233D01*
X149871176Y-101147646D01*
X149841855Y-101157329D01*
X149809413Y-101164328D01*
X149773788Y-101168690D01*
X149773561Y-101168708D01*
X149767546Y-101169002D01*
X149757832Y-101169262D01*
X149744848Y-101169485D01*
X149729022Y-101169669D01*
X149710781Y-101169809D01*
X149690554Y-101169903D01*
X149668769Y-101169947D01*
X149645855Y-101169937D01*
X149622239Y-101169871D01*
X149599152Y-101169772D01*
X149573977Y-101169634D01*
X149552270Y-101169457D01*
X149533650Y-101169218D01*
X149517740Y-101168893D01*
X149504159Y-101168458D01*
X149492530Y-101167892D01*
X149482472Y-101167169D01*
X149473607Y-101166267D01*
X149465555Y-101165163D01*
X149457938Y-101163832D01*
X149450377Y-101162252D01*
X149442492Y-101160399D01*
X149433904Y-101158250D01*
X149411301Y-101151484D01*
X149384203Y-101140129D01*
X149360049Y-101125929D01*
X149338785Y-101108826D01*
X149320361Y-101088762D01*
X149304724Y-101065679D01*
X149291825Y-101039519D01*
X149281610Y-101010224D01*
X149274030Y-100977736D01*
X149273735Y-100976077D01*
X149271745Y-100960952D01*
X149270338Y-100942849D01*
X149269512Y-100922774D01*
X149269268Y-100901734D01*
X149269605Y-100880734D01*
X149270522Y-100860780D01*
X149272019Y-100842878D01*
X149274096Y-100828033D01*
X149278214Y-100808369D01*
X149287107Y-100777878D01*
X149298526Y-100750597D01*
X149312554Y-100726411D01*
X149329273Y-100705207D01*
X149348765Y-100686869D01*
X149371112Y-100671284D01*
X149396397Y-100658338D01*
X149407928Y-100653674D01*
X149424471Y-100648193D01*
X149442988Y-100643430D01*
X149464567Y-100639077D01*
X149468540Y-100638378D01*
X149473710Y-100637558D01*
X149479068Y-100636852D01*
X149484973Y-100636249D01*
X149491787Y-100635733D01*
X149499869Y-100635292D01*
X149509580Y-100634912D01*
X149521281Y-100634579D01*
X149535331Y-100634280D01*
X149552092Y-100634001D01*
X149571923Y-100633730D01*
X149595186Y-100633451D01*
X149622239Y-100633152D01*
X149627420Y-100633096D01*
X149653567Y-100632807D01*
X149675961Y-100632540D01*
X149694941Y-100632282D01*
X149710844Y-100632020D01*
X149724010Y-100631741D01*
X149734777Y-100631430D01*
X149743481Y-100631076D01*
X149750462Y-100630664D01*
X149756058Y-100630181D01*
X149760606Y-100629613D01*
X149764445Y-100628949D01*
X149767913Y-100628173D01*
X149771348Y-100627273D01*
X149777066Y-100625607D01*
X149793108Y-100619447D01*
X149806219Y-100611705D01*
X149817242Y-100601915D01*
X149818818Y-100600200D01*
X149825827Y-100591423D01*
X149831237Y-100582063D01*
X149835639Y-100570930D01*
X149839621Y-100556836D01*
X149839985Y-100555293D01*
X149841936Y-100543604D01*
X149843367Y-100528943D01*
X149844269Y-100512297D01*
X149844635Y-100494655D01*
X149844458Y-100477004D01*
X149843728Y-100460333D01*
X149842439Y-100445629D01*
X149840584Y-100433881D01*
X149837297Y-100420966D01*
X149830833Y-100404033D01*
X149822468Y-100390400D01*
X149811977Y-100379727D01*
X149799132Y-100371672D01*
X149797665Y-100370968D01*
X149789895Y-100367601D01*
X149781676Y-100364723D01*
X149772636Y-100362300D01*
X149762406Y-100360296D01*
X149750615Y-100358675D01*
X149736895Y-100357401D01*
X149720874Y-100356439D01*
X149702183Y-100355753D01*
X149680453Y-100355308D01*
X149655312Y-100355066D01*
X149626391Y-100354994D01*
X149615289Y-100355006D01*
X149585403Y-100355191D01*
X149559242Y-100355640D01*
X149536490Y-100356402D01*
X149516833Y-100357528D01*
X149499955Y-100359068D01*
X149485540Y-100361071D01*
X149473274Y-100363587D01*
X149462841Y-100366667D01*
X149453927Y-100370361D01*
X149446215Y-100374717D01*
X149439391Y-100379787D01*
X149433140Y-100385621D01*
X149430321Y-100388755D01*
X149422239Y-100400600D01*
X149415476Y-100414835D01*
X149410690Y-100430153D01*
X149409954Y-100433249D01*
X149406436Y-100445673D01*
X149402512Y-100455115D01*
X149397707Y-100462537D01*
X149391546Y-100468905D01*
X149386498Y-100472856D01*
X149376766Y-100477901D01*
X149365188Y-100480703D01*
X149350777Y-100481569D01*
X149350552Y-100481569D01*
X149333859Y-100479986D01*
X149319753Y-100475434D01*
X149308432Y-100468088D01*
X149300099Y-100458125D01*
X149294952Y-100445719D01*
X149293192Y-100431047D01*
X149293612Y-100425833D01*
X149295314Y-100416297D01*
X149298057Y-100404698D01*
X149301556Y-100392054D01*
X149305523Y-100379385D01*
X149309672Y-100367710D01*
X149313715Y-100358050D01*
X149316555Y-100352218D01*
X149330930Y-100328082D01*
X149348189Y-100306858D01*
X149368366Y-100288520D01*
X149391499Y-100273045D01*
X149417624Y-100260407D01*
X149446777Y-100250580D01*
X149478995Y-100243539D01*
X149483234Y-100242866D01*
X149488483Y-100242161D01*
X149494198Y-100241567D01*
X149500748Y-100241077D01*
X149508502Y-100240680D01*
X149517827Y-100240367D01*
X149529093Y-100240127D01*
X149542668Y-100239953D01*
X149558920Y-100239834D01*
X149578219Y-100239761D01*
X149600933Y-100239724D01*
X149627429Y-100239714D01*
X149651812Y-100239722D01*
G37*
G36*
X145114677Y-97516359D02*
G01*
X145121924Y-97537364D01*
X145129572Y-97559623D01*
X145136694Y-97580445D01*
X145143184Y-97599520D01*
X145148938Y-97616537D01*
X145153852Y-97631185D01*
X145157821Y-97643154D01*
X145160740Y-97652133D01*
X145162505Y-97657811D01*
X145163012Y-97659879D01*
X145161874Y-97659936D01*
X145156834Y-97660024D01*
X145147911Y-97660120D01*
X145135262Y-97660225D01*
X145119042Y-97660338D01*
X145099408Y-97660458D01*
X145076516Y-97660584D01*
X145050521Y-97660717D01*
X145021580Y-97660854D01*
X144989849Y-97660996D01*
X144955484Y-97661141D01*
X144918641Y-97661290D01*
X144879476Y-97661441D01*
X144838146Y-97661595D01*
X144794806Y-97661749D01*
X144749613Y-97661904D01*
X144702722Y-97662059D01*
X144654289Y-97662213D01*
X144604472Y-97662365D01*
X144553425Y-97662516D01*
X144501305Y-97662664D01*
X144439569Y-97662840D01*
X144371505Y-97663047D01*
X144307439Y-97663257D01*
X144247381Y-97663468D01*
X144191340Y-97663682D01*
X144139326Y-97663897D01*
X144091349Y-97664115D01*
X144047418Y-97664334D01*
X144007543Y-97664556D01*
X143971733Y-97664779D01*
X143939998Y-97665003D01*
X143912347Y-97665230D01*
X143888791Y-97665458D01*
X143869339Y-97665687D01*
X143854001Y-97665918D01*
X143842785Y-97666151D01*
X143835703Y-97666385D01*
X143832763Y-97666620D01*
X143827709Y-97668656D01*
X143825197Y-97671989D01*
X143826540Y-97676500D01*
X143831725Y-97682404D01*
X143833123Y-97683597D01*
X143837778Y-97687372D01*
X143845326Y-97693394D01*
X143855536Y-97701483D01*
X143868180Y-97711459D01*
X143883028Y-97723143D01*
X143899852Y-97736353D01*
X143918423Y-97750910D01*
X143938511Y-97766635D01*
X143959888Y-97783347D01*
X143982324Y-97800866D01*
X144005590Y-97819013D01*
X144022029Y-97831830D01*
X144044625Y-97849459D01*
X144066184Y-97866292D01*
X144086483Y-97882154D01*
X144105297Y-97896869D01*
X144122402Y-97910262D01*
X144137575Y-97922156D01*
X144150592Y-97932378D01*
X144161228Y-97940750D01*
X144169260Y-97947098D01*
X144174463Y-97951247D01*
X144176614Y-97953020D01*
X144176727Y-97953129D01*
X144177416Y-97953968D01*
X144177853Y-97955117D01*
X144177946Y-97956851D01*
X144177603Y-97959447D01*
X144176733Y-97963180D01*
X144175246Y-97968326D01*
X144173049Y-97975160D01*
X144170052Y-97983959D01*
X144166163Y-97994998D01*
X144161291Y-98008553D01*
X144155345Y-98024900D01*
X144148233Y-98044314D01*
X144139865Y-98067071D01*
X144130149Y-98093447D01*
X144124134Y-98109772D01*
X144116023Y-98131779D01*
X144108406Y-98152444D01*
X144101401Y-98171447D01*
X144095125Y-98188469D01*
X144089697Y-98203190D01*
X144085233Y-98215293D01*
X144081852Y-98224456D01*
X144079671Y-98230362D01*
X144078808Y-98232691D01*
X144077742Y-98233998D01*
X144074410Y-98233320D01*
X144073191Y-98232486D01*
X144068757Y-98229239D01*
X144061381Y-98223741D01*
X144051278Y-98216153D01*
X144038660Y-98206638D01*
X144023741Y-98195359D01*
X144006734Y-98182478D01*
X143987851Y-98168158D01*
X143967307Y-98152562D01*
X143945315Y-98135851D01*
X143922087Y-98118189D01*
X143897837Y-98099738D01*
X143872778Y-98080661D01*
X143847123Y-98061120D01*
X143821086Y-98041278D01*
X143794879Y-98021297D01*
X143768717Y-98001341D01*
X143742812Y-97981571D01*
X143717377Y-97962150D01*
X143692626Y-97943241D01*
X143668771Y-97925006D01*
X143646027Y-97907608D01*
X143624606Y-97891209D01*
X143604721Y-97875973D01*
X143586586Y-97862061D01*
X143570414Y-97849636D01*
X143556418Y-97838861D01*
X143544811Y-97829899D01*
X143535807Y-97822911D01*
X143529619Y-97818061D01*
X143526460Y-97815511D01*
X143511335Y-97801916D01*
X143488649Y-97778676D01*
X143468727Y-97754522D01*
X143451891Y-97729898D01*
X143438467Y-97705252D01*
X143428777Y-97681029D01*
X143422201Y-97655241D01*
X143418550Y-97625874D01*
X143418552Y-97595996D01*
X143422085Y-97566109D01*
X143429027Y-97536714D01*
X143439259Y-97508313D01*
X143452657Y-97481408D01*
X143469102Y-97456501D01*
X143488471Y-97434092D01*
X143503595Y-97420241D01*
X143527413Y-97403118D01*
X143553358Y-97389466D01*
X143581046Y-97379510D01*
X143597654Y-97374818D01*
X145065394Y-97373788D01*
X145114677Y-97516359D01*
G37*
G36*
X144954691Y-100240535D02*
G01*
X144968144Y-100245278D01*
X144979537Y-100252848D01*
X144988311Y-100262909D01*
X144993908Y-100275121D01*
X144994163Y-100276227D01*
X144994496Y-100278544D01*
X144994802Y-100281900D01*
X144995082Y-100286459D01*
X144995336Y-100292386D01*
X144995566Y-100299844D01*
X144995773Y-100308996D01*
X144995958Y-100320007D01*
X144996123Y-100333040D01*
X144996267Y-100348260D01*
X144996393Y-100365830D01*
X144996502Y-100385913D01*
X144996595Y-100408674D01*
X144996672Y-100434277D01*
X144996736Y-100462884D01*
X144996786Y-100494661D01*
X144996825Y-100529771D01*
X144996853Y-100568378D01*
X144996872Y-100610645D01*
X144996883Y-100656736D01*
X144996886Y-100706816D01*
X144996886Y-101128246D01*
X144992113Y-101138601D01*
X144987584Y-101146924D01*
X144978891Y-101157106D01*
X144967744Y-101164246D01*
X144953614Y-101168759D01*
X144951478Y-101169143D01*
X144941501Y-101169834D01*
X144930230Y-101169350D01*
X144919459Y-101167834D01*
X144910979Y-101165424D01*
X144901225Y-101159615D01*
X144891974Y-101150546D01*
X144885039Y-101139665D01*
X144880629Y-101130322D01*
X144878553Y-100466654D01*
X144618014Y-100802634D01*
X144603459Y-100821399D01*
X144578079Y-100854098D01*
X144553362Y-100885915D01*
X144529434Y-100916691D01*
X144506420Y-100946264D01*
X144484445Y-100974476D01*
X144463634Y-101001164D01*
X144444112Y-101026171D01*
X144426005Y-101049335D01*
X144409437Y-101070496D01*
X144394535Y-101089495D01*
X144381422Y-101106170D01*
X144370225Y-101120363D01*
X144361069Y-101131913D01*
X144354078Y-101140659D01*
X144349378Y-101146443D01*
X144347094Y-101149103D01*
X144338129Y-101157212D01*
X144326832Y-101164330D01*
X144314661Y-101168296D01*
X144300520Y-101169591D01*
X144290207Y-101169186D01*
X144277241Y-101166611D01*
X144266476Y-101161401D01*
X144257091Y-101153247D01*
X144255453Y-101151576D01*
X144253870Y-101150093D01*
X144252419Y-101148717D01*
X144251093Y-101147276D01*
X144249887Y-101145601D01*
X144248795Y-101143521D01*
X144247811Y-101140866D01*
X144246931Y-101137466D01*
X144246147Y-101133150D01*
X144245456Y-101127748D01*
X144244850Y-101121090D01*
X144244325Y-101113004D01*
X144243874Y-101103322D01*
X144243492Y-101091872D01*
X144243174Y-101078485D01*
X144242914Y-101062989D01*
X144242706Y-101045216D01*
X144242544Y-101024993D01*
X144242424Y-101002151D01*
X144242338Y-100976520D01*
X144242283Y-100947930D01*
X144242251Y-100916209D01*
X144242238Y-100881188D01*
X144242237Y-100842696D01*
X144242244Y-100800563D01*
X144242252Y-100754619D01*
X144242256Y-100704693D01*
X144242256Y-100691411D01*
X144242253Y-100642834D01*
X144242250Y-100598192D01*
X144242252Y-100557314D01*
X144242262Y-100520026D01*
X144242285Y-100486157D01*
X144242325Y-100455534D01*
X144242386Y-100427986D01*
X144242473Y-100403340D01*
X144242589Y-100381424D01*
X144242739Y-100362066D01*
X144242928Y-100345094D01*
X144243159Y-100330335D01*
X144243437Y-100317617D01*
X144243766Y-100306769D01*
X144244150Y-100297618D01*
X144244594Y-100289992D01*
X144245101Y-100283718D01*
X144245676Y-100278625D01*
X144246324Y-100274541D01*
X144247048Y-100271293D01*
X144247853Y-100268709D01*
X144248742Y-100266617D01*
X144249721Y-100264844D01*
X144250794Y-100263220D01*
X144251964Y-100261571D01*
X144253236Y-100259725D01*
X144256993Y-100255030D01*
X144266511Y-100247623D01*
X144278311Y-100242436D01*
X144291544Y-100239540D01*
X144305357Y-100239008D01*
X144318901Y-100240909D01*
X144331324Y-100245317D01*
X144341777Y-100252301D01*
X144344146Y-100254609D01*
X144349656Y-100261102D01*
X144353628Y-100267270D01*
X144353638Y-100267290D01*
X144354140Y-100268432D01*
X144354597Y-100269866D01*
X144355013Y-100271787D01*
X144355389Y-100274387D01*
X144355730Y-100277859D01*
X144356037Y-100282395D01*
X144356314Y-100288190D01*
X144356563Y-100295435D01*
X144356786Y-100304325D01*
X144356987Y-100315050D01*
X144357169Y-100327806D01*
X144357334Y-100342784D01*
X144357484Y-100360178D01*
X144357624Y-100380180D01*
X144357754Y-100402983D01*
X144357879Y-100428781D01*
X144358001Y-100457766D01*
X144358123Y-100490131D01*
X144358246Y-100526070D01*
X144358375Y-100565775D01*
X144358512Y-100609438D01*
X144359550Y-100943871D01*
X144621128Y-100606691D01*
X144636545Y-100586825D01*
X144661959Y-100554102D01*
X144686707Y-100522271D01*
X144710665Y-100491490D01*
X144733706Y-100461919D01*
X144755706Y-100433718D01*
X144776539Y-100407046D01*
X144796082Y-100382063D01*
X144814209Y-100358927D01*
X144830794Y-100337799D01*
X144845713Y-100318838D01*
X144858841Y-100302204D01*
X144870053Y-100288056D01*
X144879223Y-100276553D01*
X144886228Y-100267855D01*
X144890941Y-100262122D01*
X144893238Y-100259513D01*
X144897036Y-100256049D01*
X144909147Y-100247138D01*
X144921397Y-100241665D01*
X144934694Y-100239183D01*
X144939735Y-100238960D01*
X144954691Y-100240535D01*
G37*
G36*
X140645182Y-100385913D02*
G01*
X140645275Y-100408674D01*
X140645352Y-100434277D01*
X140645416Y-100462884D01*
X140645466Y-100494661D01*
X140645505Y-100529771D01*
X140645533Y-100568378D01*
X140645552Y-100610645D01*
X140645563Y-100656736D01*
X140645566Y-100706816D01*
X140645566Y-101128246D01*
X140640784Y-101138627D01*
X140636531Y-101146511D01*
X140627970Y-101156794D01*
X140617160Y-101163925D01*
X140603762Y-101168099D01*
X140587438Y-101169512D01*
X140586497Y-101169513D01*
X140577323Y-101169132D01*
X140568839Y-101168178D01*
X140562773Y-101166840D01*
X140557806Y-101164647D01*
X140548266Y-101158039D01*
X140539768Y-101149297D01*
X140533648Y-101139665D01*
X140533469Y-101139279D01*
X140532703Y-101137501D01*
X140532035Y-101135544D01*
X140531458Y-101133126D01*
X140530965Y-101129963D01*
X140530546Y-101125769D01*
X140530195Y-101120263D01*
X140529902Y-101113159D01*
X140529661Y-101104173D01*
X140529462Y-101093023D01*
X140529299Y-101079424D01*
X140529163Y-101063092D01*
X140529046Y-101043744D01*
X140528940Y-101021095D01*
X140528838Y-100994862D01*
X140528731Y-100964761D01*
X140528152Y-100799199D01*
X140338316Y-100799335D01*
X140232440Y-100976155D01*
X140224885Y-100988764D01*
X140210104Y-101013389D01*
X140195883Y-101037024D01*
X140182378Y-101059410D01*
X140169747Y-101080291D01*
X140158145Y-101099408D01*
X140147730Y-101116504D01*
X140138659Y-101131322D01*
X140131087Y-101143605D01*
X140125173Y-101153094D01*
X140121072Y-101159532D01*
X140118941Y-101162662D01*
X140118871Y-101162750D01*
X140110328Y-101171270D01*
X140100256Y-101177945D01*
X140090395Y-101181631D01*
X140076828Y-101182962D01*
X140062830Y-101180389D01*
X140048725Y-101173981D01*
X140034841Y-101163811D01*
X140034807Y-101163781D01*
X140024626Y-101152348D01*
X140018310Y-101139515D01*
X140015935Y-101125514D01*
X140017577Y-101110581D01*
X140018260Y-101108542D01*
X140020325Y-101103956D01*
X140023756Y-101097237D01*
X140028645Y-101088230D01*
X140035080Y-101076778D01*
X140043151Y-101062726D01*
X140052948Y-101045918D01*
X140064562Y-101026197D01*
X140078082Y-101003407D01*
X140093597Y-100977394D01*
X140111198Y-100947999D01*
X140202229Y-100796215D01*
X140179607Y-100790653D01*
X140179351Y-100790590D01*
X140149797Y-100781591D01*
X140123235Y-100769852D01*
X140099401Y-100755213D01*
X140078034Y-100737513D01*
X140058870Y-100716590D01*
X140044459Y-100696084D01*
X140031679Y-100671825D01*
X140021234Y-100644551D01*
X140012993Y-100613971D01*
X140011579Y-100605643D01*
X140010214Y-100593035D01*
X140009090Y-100577659D01*
X140008218Y-100560242D01*
X140007610Y-100541513D01*
X140007317Y-100524414D01*
X140124637Y-100524414D01*
X140124672Y-100541656D01*
X140124819Y-100555500D01*
X140125102Y-100566514D01*
X140125548Y-100575264D01*
X140126183Y-100582317D01*
X140127033Y-100588240D01*
X140128125Y-100593600D01*
X140128316Y-100594414D01*
X140132958Y-100609720D01*
X140139269Y-100624644D01*
X140146643Y-100637932D01*
X140154477Y-100648325D01*
X140163222Y-100656081D01*
X140176323Y-100664361D01*
X140191826Y-100671523D01*
X140208799Y-100677075D01*
X140210355Y-100677482D01*
X140213679Y-100678300D01*
X140217069Y-100679007D01*
X140220838Y-100679612D01*
X140225301Y-100680125D01*
X140230771Y-100680557D01*
X140237564Y-100680917D01*
X140245994Y-100681216D01*
X140256375Y-100681462D01*
X140269021Y-100681667D01*
X140284248Y-100681840D01*
X140302369Y-100681992D01*
X140323698Y-100682131D01*
X140348551Y-100682269D01*
X140377241Y-100682414D01*
X140528271Y-100683166D01*
X140528271Y-100354932D01*
X140400078Y-100354993D01*
X140374893Y-100355018D01*
X140345594Y-100355103D01*
X140319899Y-100355269D01*
X140297500Y-100355541D01*
X140278088Y-100355944D01*
X140261353Y-100356503D01*
X140246987Y-100357242D01*
X140234679Y-100358186D01*
X140224122Y-100359361D01*
X140215005Y-100360790D01*
X140207020Y-100362499D01*
X140199857Y-100364513D01*
X140193207Y-100366856D01*
X140186762Y-100369553D01*
X140180211Y-100372629D01*
X140169069Y-100379042D01*
X140155928Y-100390074D01*
X140145060Y-100403980D01*
X140136224Y-100421085D01*
X140129180Y-100441717D01*
X140128713Y-100443431D01*
X140127510Y-100448336D01*
X140126575Y-100453342D01*
X140125872Y-100459027D01*
X140125368Y-100465970D01*
X140125028Y-100474750D01*
X140124817Y-100485946D01*
X140124701Y-100500136D01*
X140124645Y-100517899D01*
X140124637Y-100524414D01*
X140007317Y-100524414D01*
X140007279Y-100522198D01*
X140007237Y-100503026D01*
X140007494Y-100484724D01*
X140008064Y-100468020D01*
X140008957Y-100453642D01*
X140010187Y-100442318D01*
X140012850Y-100426622D01*
X140020742Y-100394925D01*
X140031576Y-100366156D01*
X140045358Y-100340306D01*
X140062095Y-100317365D01*
X140081795Y-100297326D01*
X140104465Y-100280178D01*
X140130111Y-100265914D01*
X140158741Y-100254525D01*
X140163317Y-100253011D01*
X140170088Y-100250796D01*
X140176363Y-100248846D01*
X140182433Y-100247143D01*
X140188588Y-100245668D01*
X140195119Y-100244403D01*
X140202317Y-100243332D01*
X140210471Y-100242436D01*
X140219872Y-100241697D01*
X140230811Y-100241098D01*
X140243579Y-100240620D01*
X140258464Y-100240246D01*
X140275760Y-100239957D01*
X140295754Y-100239737D01*
X140318739Y-100239567D01*
X140345004Y-100239429D01*
X140374841Y-100239306D01*
X140408538Y-100239180D01*
X140412000Y-100239167D01*
X140445325Y-100239037D01*
X140474781Y-100238928D01*
X140500626Y-100238858D01*
X140523117Y-100238845D01*
X140542511Y-100238909D01*
X140559067Y-100239067D01*
X140573042Y-100239338D01*
X140584694Y-100239741D01*
X140594281Y-100240294D01*
X140602060Y-100241015D01*
X140608288Y-100241923D01*
X140613225Y-100243037D01*
X140617126Y-100244374D01*
X140620251Y-100245954D01*
X140622856Y-100247794D01*
X140625199Y-100249914D01*
X140627539Y-100252332D01*
X140630132Y-100255066D01*
X140637393Y-100264020D01*
X140642588Y-100275121D01*
X140642843Y-100276227D01*
X140643176Y-100278544D01*
X140643482Y-100281900D01*
X140643762Y-100286459D01*
X140644016Y-100292386D01*
X140644246Y-100299844D01*
X140644453Y-100308996D01*
X140644638Y-100320007D01*
X140644803Y-100333040D01*
X140644947Y-100348260D01*
X140644995Y-100354932D01*
X140645074Y-100365830D01*
X140645182Y-100385913D01*
G37*
G36*
X145356459Y-100238934D02*
G01*
X145388208Y-100238996D01*
X145423673Y-100239075D01*
X145463072Y-100239163D01*
X145723490Y-100239714D01*
X145735634Y-100245676D01*
X145738939Y-100247440D01*
X145749595Y-100255837D01*
X145757190Y-100266966D01*
X145761835Y-100280974D01*
X145761844Y-100281019D01*
X145762133Y-100284264D01*
X145762396Y-100290907D01*
X145762632Y-100301002D01*
X145762842Y-100314602D01*
X145763026Y-100331762D01*
X145763184Y-100352534D01*
X145763317Y-100376974D01*
X145763425Y-100405134D01*
X145763507Y-100437069D01*
X145763565Y-100472833D01*
X145763597Y-100512479D01*
X145763605Y-100556062D01*
X145763589Y-100603635D01*
X145763549Y-100655253D01*
X145763485Y-100710968D01*
X145763461Y-100729318D01*
X145763396Y-100777004D01*
X145763332Y-100820772D01*
X145763267Y-100860794D01*
X145763201Y-100897240D01*
X145763130Y-100930284D01*
X145763053Y-100960095D01*
X145762969Y-100986846D01*
X145762875Y-101010708D01*
X145762771Y-101031852D01*
X145762654Y-101050451D01*
X145762522Y-101066676D01*
X145762375Y-101080698D01*
X145762209Y-101092689D01*
X145762024Y-101102821D01*
X145761818Y-101111264D01*
X145761589Y-101118191D01*
X145761335Y-101123773D01*
X145761054Y-101128181D01*
X145760746Y-101131588D01*
X145760408Y-101134164D01*
X145760038Y-101136082D01*
X145759634Y-101137512D01*
X145759196Y-101138627D01*
X145756179Y-101144405D01*
X145747135Y-101155668D01*
X145735506Y-101163882D01*
X145721774Y-101168660D01*
X145719052Y-101168858D01*
X145712337Y-101169062D01*
X145701970Y-101169250D01*
X145688210Y-101169423D01*
X145671317Y-101169579D01*
X145651552Y-101169716D01*
X145629175Y-101169833D01*
X145604447Y-101169928D01*
X145577628Y-101170001D01*
X145548978Y-101170050D01*
X145518757Y-101170073D01*
X145487227Y-101170070D01*
X145454646Y-101170039D01*
X145423306Y-101169991D01*
X145387437Y-101169925D01*
X145355350Y-101169848D01*
X145326838Y-101169759D01*
X145301694Y-101169654D01*
X145279712Y-101169531D01*
X145260685Y-101169388D01*
X145244406Y-101169222D01*
X145230670Y-101169031D01*
X145219269Y-101168811D01*
X145209997Y-101168561D01*
X145202648Y-101168278D01*
X145197015Y-101167959D01*
X145192891Y-101167603D01*
X145190071Y-101167205D01*
X145188346Y-101166764D01*
X145180745Y-101163173D01*
X145170004Y-101154631D01*
X145161942Y-101143265D01*
X145156816Y-101129489D01*
X145154889Y-101113714D01*
X145155290Y-101101801D01*
X145157715Y-101089006D01*
X145162563Y-101078375D01*
X145170127Y-101069045D01*
X145171781Y-101067353D01*
X145173860Y-101065158D01*
X145175821Y-101063209D01*
X145177900Y-101061490D01*
X145180335Y-101059988D01*
X145183364Y-101058685D01*
X145187223Y-101057568D01*
X145192150Y-101056621D01*
X145198381Y-101055829D01*
X145206155Y-101055176D01*
X145215709Y-101054648D01*
X145227279Y-101054229D01*
X145241103Y-101053904D01*
X145257418Y-101053658D01*
X145276462Y-101053476D01*
X145298472Y-101053342D01*
X145323684Y-101053241D01*
X145352337Y-101053159D01*
X145384667Y-101053079D01*
X145420911Y-101052987D01*
X145645640Y-101052382D01*
X145645640Y-100759940D01*
X145358112Y-100758716D01*
X145345746Y-100752488D01*
X145339748Y-100749137D01*
X145329977Y-100741239D01*
X145323143Y-100731280D01*
X145318522Y-100718352D01*
X145316637Y-100708614D01*
X145316240Y-100692713D01*
X145319235Y-100678113D01*
X145325434Y-100665288D01*
X145334649Y-100654715D01*
X145346694Y-100646869D01*
X145347165Y-100646648D01*
X145349048Y-100645824D01*
X145351106Y-100645114D01*
X145353646Y-100644508D01*
X145356973Y-100643996D01*
X145361394Y-100643569D01*
X145367213Y-100643215D01*
X145374737Y-100642926D01*
X145384272Y-100642692D01*
X145396124Y-100642502D01*
X145410598Y-100642347D01*
X145428000Y-100642216D01*
X145448637Y-100642100D01*
X145472814Y-100641989D01*
X145500838Y-100641874D01*
X145645640Y-100641287D01*
X145645640Y-100354932D01*
X145420911Y-100354841D01*
X145415433Y-100354839D01*
X145379377Y-100354813D01*
X145347230Y-100354771D01*
X145318775Y-100354709D01*
X145293801Y-100354624D01*
X145272093Y-100354515D01*
X145253436Y-100354378D01*
X145237618Y-100354211D01*
X145224424Y-100354010D01*
X145213641Y-100353775D01*
X145205054Y-100353501D01*
X145198449Y-100353186D01*
X145193614Y-100352828D01*
X145190333Y-100352423D01*
X145188394Y-100351970D01*
X145180419Y-100348358D01*
X145169550Y-100339998D01*
X145161565Y-100328834D01*
X145156629Y-100315128D01*
X145154907Y-100299142D01*
X145155401Y-100287738D01*
X145158077Y-100274053D01*
X145163276Y-100262843D01*
X145171225Y-100253471D01*
X145171592Y-100253131D01*
X145173773Y-100251036D01*
X145175742Y-100249151D01*
X145177717Y-100247467D01*
X145179916Y-100245972D01*
X145182558Y-100244656D01*
X145185861Y-100243507D01*
X145190043Y-100242516D01*
X145195322Y-100241671D01*
X145201916Y-100240963D01*
X145210044Y-100240379D01*
X145219923Y-100239910D01*
X145231773Y-100239545D01*
X145245811Y-100239273D01*
X145262255Y-100239083D01*
X145281323Y-100238965D01*
X145303235Y-100238908D01*
X145328207Y-100238901D01*
X145356459Y-100238934D01*
G37*
G36*
X144602651Y-98257113D02*
G01*
X144606182Y-98259591D01*
X144612846Y-98264423D01*
X144622524Y-98271519D01*
X144635094Y-98280789D01*
X144650438Y-98292144D01*
X144668434Y-98305494D01*
X144688963Y-98320750D01*
X144711905Y-98337822D01*
X144737139Y-98356620D01*
X144764545Y-98377055D01*
X144794003Y-98399037D01*
X144825394Y-98422476D01*
X144858596Y-98447283D01*
X144893490Y-98473369D01*
X144929956Y-98500642D01*
X144967873Y-98529015D01*
X145007122Y-98558397D01*
X145047582Y-98588699D01*
X145089133Y-98619831D01*
X145131654Y-98651703D01*
X145175027Y-98684226D01*
X145198553Y-98701870D01*
X145241530Y-98734097D01*
X145283607Y-98765644D01*
X145324662Y-98796420D01*
X145364575Y-98826334D01*
X145403225Y-98855297D01*
X145440490Y-98883216D01*
X145476250Y-98910003D01*
X145510383Y-98935565D01*
X145542769Y-98959814D01*
X145573286Y-98982657D01*
X145601814Y-99004004D01*
X145628231Y-99023766D01*
X145652416Y-99041850D01*
X145674248Y-99058168D01*
X145693607Y-99072627D01*
X145710371Y-99085138D01*
X145724420Y-99095610D01*
X145735631Y-99103952D01*
X145743884Y-99110074D01*
X145749059Y-99113885D01*
X145751033Y-99115295D01*
X145756543Y-99117297D01*
X145761788Y-99117070D01*
X145764835Y-99114224D01*
X145764846Y-99114139D01*
X145764246Y-99111282D01*
X145762466Y-99104711D01*
X145759570Y-99094644D01*
X145755626Y-99081298D01*
X145750700Y-99064890D01*
X145744858Y-99045637D01*
X145738167Y-99023756D01*
X145730694Y-98999464D01*
X145722503Y-98972979D01*
X145713662Y-98944518D01*
X145704238Y-98914298D01*
X145694296Y-98882535D01*
X145683903Y-98849448D01*
X145680497Y-98838618D01*
X145670595Y-98807076D01*
X145661082Y-98776689D01*
X145652030Y-98747689D01*
X145643511Y-98720311D01*
X145635597Y-98694787D01*
X145628359Y-98671353D01*
X145621869Y-98650242D01*
X145616200Y-98631687D01*
X145611423Y-98615922D01*
X145607610Y-98603181D01*
X145604834Y-98593697D01*
X145603165Y-98587705D01*
X145602677Y-98585438D01*
X145603012Y-98585090D01*
X145606173Y-98582751D01*
X145612369Y-98578505D01*
X145621260Y-98572570D01*
X145632503Y-98565165D01*
X145645755Y-98556510D01*
X145660674Y-98546822D01*
X145676917Y-98536322D01*
X145694143Y-98525228D01*
X145712007Y-98513760D01*
X145730169Y-98502135D01*
X145748285Y-98490574D01*
X145766014Y-98479295D01*
X145783011Y-98468517D01*
X145798937Y-98458459D01*
X145813446Y-98449341D01*
X145826198Y-98441381D01*
X145836850Y-98434798D01*
X145845059Y-98429811D01*
X145850483Y-98426639D01*
X145852780Y-98425501D01*
X145853055Y-98425777D01*
X145854292Y-98428398D01*
X145856427Y-98433852D01*
X145859485Y-98442220D01*
X145863495Y-98453581D01*
X145868482Y-98468015D01*
X145874473Y-98485602D01*
X145881496Y-98506422D01*
X145889576Y-98530555D01*
X145898742Y-98558081D01*
X145909019Y-98589080D01*
X145920434Y-98623631D01*
X145933015Y-98661815D01*
X145946788Y-98703711D01*
X145961780Y-98749400D01*
X145978017Y-98798962D01*
X145989293Y-98833421D01*
X146001596Y-98871063D01*
X146013538Y-98907643D01*
X146025051Y-98942955D01*
X146036070Y-98976794D01*
X146046527Y-99008954D01*
X146056356Y-99039227D01*
X146065490Y-99067410D01*
X146073862Y-99093295D01*
X146081407Y-99116677D01*
X146088056Y-99137349D01*
X146093743Y-99155106D01*
X146098403Y-99169742D01*
X146101967Y-99181052D01*
X146104370Y-99188828D01*
X146105544Y-99192865D01*
X146109000Y-99207056D01*
X146115736Y-99241837D01*
X146119347Y-99274263D01*
X146119827Y-99304612D01*
X146117171Y-99333161D01*
X146111377Y-99360188D01*
X146102438Y-99385969D01*
X146100561Y-99390290D01*
X146088730Y-99412121D01*
X146073425Y-99433468D01*
X146055206Y-99453757D01*
X146034633Y-99472412D01*
X146012269Y-99488859D01*
X145988674Y-99502522D01*
X145984732Y-99504414D01*
X145970322Y-99510300D01*
X145953980Y-99515774D01*
X145937380Y-99520311D01*
X145922194Y-99523384D01*
X145903870Y-99525575D01*
X145873758Y-99526098D01*
X145844424Y-99522599D01*
X145815576Y-99515035D01*
X145786925Y-99503363D01*
X145786424Y-99503123D01*
X145784399Y-99502143D01*
X145782385Y-99501129D01*
X145780248Y-99499982D01*
X145777855Y-99498604D01*
X145775073Y-99496894D01*
X145771770Y-99494756D01*
X145767812Y-99492091D01*
X145763067Y-99488799D01*
X145757401Y-99484782D01*
X145750681Y-99479941D01*
X145742775Y-99474179D01*
X145733548Y-99467396D01*
X145722870Y-99459493D01*
X145710605Y-99450372D01*
X145696622Y-99439935D01*
X145680787Y-99428082D01*
X145662967Y-99414715D01*
X145643029Y-99399736D01*
X145620841Y-99383046D01*
X145596269Y-99364546D01*
X145569180Y-99344137D01*
X145539441Y-99321721D01*
X145506919Y-99297200D01*
X145471482Y-99270474D01*
X145432996Y-99241445D01*
X145391328Y-99210015D01*
X145375103Y-99197777D01*
X145352570Y-99180784D01*
X145327227Y-99161674D01*
X145299350Y-99140656D01*
X145269216Y-99117938D01*
X145237104Y-99093730D01*
X145203291Y-99068241D01*
X145168054Y-99041680D01*
X145131670Y-99014256D01*
X145094416Y-98986178D01*
X145056571Y-98957655D01*
X145018411Y-98928896D01*
X144980214Y-98900111D01*
X144942257Y-98871508D01*
X144904818Y-98843296D01*
X144868173Y-98815684D01*
X144841788Y-98795802D01*
X144808736Y-98770889D01*
X144776666Y-98746711D01*
X144745735Y-98723384D01*
X144716098Y-98701025D01*
X144687910Y-98679754D01*
X144661327Y-98659687D01*
X144636505Y-98640941D01*
X144613599Y-98623635D01*
X144592765Y-98607886D01*
X144574158Y-98593811D01*
X144557935Y-98581529D01*
X144544250Y-98571156D01*
X144533260Y-98562810D01*
X144525119Y-98556609D01*
X144519984Y-98552671D01*
X144518011Y-98551112D01*
X144517557Y-98550548D01*
X144517139Y-98549378D01*
X144517037Y-98547513D01*
X144517323Y-98544679D01*
X144518071Y-98540604D01*
X144519355Y-98535014D01*
X144521246Y-98527635D01*
X144523820Y-98518194D01*
X144527147Y-98506416D01*
X144531303Y-98492030D01*
X144536360Y-98474761D01*
X144542391Y-98454336D01*
X144549469Y-98430481D01*
X144557668Y-98402923D01*
X144564043Y-98381545D01*
X144570811Y-98358925D01*
X144577168Y-98337757D01*
X144583018Y-98318356D01*
X144588265Y-98301040D01*
X144592812Y-98286124D01*
X144596565Y-98273925D01*
X144599425Y-98264758D01*
X144601298Y-98258940D01*
X144602088Y-98256786D01*
X144602651Y-98257113D01*
G37*
%LPC*%
D14*
X148500000Y-95762500D03*
X141500000Y-95762500D03*
D15*
X147500000Y-98462500D03*
X142500000Y-98462500D03*
D16*
X138500000Y-99500000D03*
D17*
X140000000Y-104950000D03*
X150000000Y-104950000D03*
D16*
X151500000Y-99500000D03*
D18*
X150000000Y-111600000D03*
D19*
X147460000Y-111600000D03*
X144920000Y-111600000D03*
X142380000Y-111600000D03*
X139840000Y-111600000D03*
M02*
