G04 #@! TF.GenerationSoftware,KiCad,Pcbnew,(6.0.4-0)*
G04 #@! TF.CreationDate,2022-11-06T16:29:11+01:00*
G04 #@! TF.ProjectId,SL_MicroUSB-Breakout,534c5f4d-6963-4726-9f55-53422d427265,rev?*
G04 #@! TF.SameCoordinates,Original*
G04 #@! TF.FileFunction,Copper,L2,Bot*
G04 #@! TF.FilePolarity,Positive*
%FSLAX46Y46*%
G04 Gerber Fmt 4.6, Leading zero omitted, Abs format (unit mm)*
G04 Created by KiCad (PCBNEW (6.0.4-0)) date 2022-11-06 16:29:11*
%MOMM*%
%LPD*%
G01*
G04 APERTURE LIST*
G04 #@! TA.AperFunction,ComponentPad*
%ADD10O,1.200000X1.900000*%
G04 #@! TD*
G04 #@! TA.AperFunction,ComponentPad*
%ADD11C,1.450000*%
G04 #@! TD*
G04 #@! TA.AperFunction,ComponentPad*
%ADD12C,2.000000*%
G04 #@! TD*
G04 #@! TA.AperFunction,ComponentPad*
%ADD13R,1.700000X1.700000*%
G04 #@! TD*
G04 #@! TA.AperFunction,ComponentPad*
%ADD14O,1.700000X1.700000*%
G04 #@! TD*
G04 APERTURE END LIST*
D10*
X148500000Y-95762500D03*
X141500000Y-95762500D03*
D11*
X147500000Y-98462500D03*
X142500000Y-98462500D03*
D12*
X138500000Y-99500000D03*
X151500000Y-99500000D03*
D13*
X150000000Y-111600000D03*
D14*
X147460000Y-111600000D03*
X144920000Y-111600000D03*
X142380000Y-111600000D03*
X139840000Y-111600000D03*
G04 #@! TA.AperFunction,Conductor*
G36*
X139805303Y-94028502D02*
G01*
X139826277Y-94045405D01*
X140090182Y-94309310D01*
X140097799Y-94318846D01*
X140098169Y-94318531D01*
X140103984Y-94325364D01*
X140108776Y-94332958D01*
X140120799Y-94343576D01*
X140149116Y-94368585D01*
X140154803Y-94373931D01*
X140166255Y-94385383D01*
X140169846Y-94388074D01*
X140169848Y-94388076D01*
X140174630Y-94391660D01*
X140182473Y-94398045D01*
X140186821Y-94401885D01*
X140217951Y-94429378D01*
X140226078Y-94433194D01*
X140228534Y-94434807D01*
X140243547Y-94443829D01*
X140246118Y-94445237D01*
X140253296Y-94450616D01*
X140261696Y-94453765D01*
X140261698Y-94453766D01*
X140297640Y-94467239D01*
X140306943Y-94471159D01*
X140349800Y-94491281D01*
X140358669Y-94492662D01*
X140361495Y-94493526D01*
X140378399Y-94497960D01*
X140381275Y-94498592D01*
X140389684Y-94501745D01*
X140398634Y-94502410D01*
X140436906Y-94505254D01*
X140446952Y-94506408D01*
X140455575Y-94507751D01*
X140455578Y-94507751D01*
X140460386Y-94508500D01*
X140475906Y-94508500D01*
X140485243Y-94508846D01*
X140534941Y-94512539D01*
X140534830Y-94514038D01*
X140594590Y-94527247D01*
X140644624Y-94577617D01*
X140659483Y-94647041D01*
X140632716Y-94715725D01*
X140623263Y-94727695D01*
X140515079Y-94895241D01*
X140509583Y-94905845D01*
X140435039Y-95090812D01*
X140431645Y-95102270D01*
X140393143Y-95299428D01*
X140392066Y-95308291D01*
X140392000Y-95311000D01*
X140392000Y-95490385D01*
X140396475Y-95505624D01*
X140397865Y-95506829D01*
X140405548Y-95508500D01*
X142589885Y-95508500D01*
X142605124Y-95504025D01*
X142606329Y-95502635D01*
X142608000Y-95494952D01*
X142608000Y-95362668D01*
X142607715Y-95356692D01*
X142593529Y-95208006D01*
X142591270Y-95196272D01*
X142535128Y-95004901D01*
X142530698Y-94993825D01*
X142439381Y-94816522D01*
X142432931Y-94806476D01*
X142358981Y-94712333D01*
X142332631Y-94646407D01*
X142346106Y-94576701D01*
X142395128Y-94525346D01*
X142458067Y-94508500D01*
X147536481Y-94508500D01*
X147604602Y-94528502D01*
X147651095Y-94582158D01*
X147661199Y-94652432D01*
X147632226Y-94711923D01*
X147634377Y-94713622D01*
X147623262Y-94727696D01*
X147515079Y-94895241D01*
X147509583Y-94905845D01*
X147435039Y-95090812D01*
X147431645Y-95102270D01*
X147393143Y-95299428D01*
X147392066Y-95308291D01*
X147392000Y-95311000D01*
X147392000Y-95490385D01*
X147396475Y-95505624D01*
X147397865Y-95506829D01*
X147405548Y-95508500D01*
X149589885Y-95508500D01*
X149605124Y-95504025D01*
X149606329Y-95502635D01*
X149608000Y-95494952D01*
X149608000Y-95362668D01*
X149607715Y-95356692D01*
X149593529Y-95208006D01*
X149591270Y-95196272D01*
X149535128Y-95004901D01*
X149530698Y-94993825D01*
X149439381Y-94816522D01*
X149432931Y-94806476D01*
X149361199Y-94715157D01*
X149334849Y-94649232D01*
X149348324Y-94579525D01*
X149397345Y-94528170D01*
X149458938Y-94514306D01*
X149458800Y-94512074D01*
X149512508Y-94508742D01*
X149520310Y-94508500D01*
X149536513Y-94508500D01*
X149545429Y-94507223D01*
X149546878Y-94507016D01*
X149556928Y-94505987D01*
X149595216Y-94503611D01*
X149604177Y-94503055D01*
X149612623Y-94500006D01*
X149615514Y-94499407D01*
X149632480Y-94495178D01*
X149635305Y-94494352D01*
X149644187Y-94493080D01*
X149687298Y-94473478D01*
X149696649Y-94469672D01*
X149698475Y-94469013D01*
X149741181Y-94453596D01*
X149748429Y-94448301D01*
X149751027Y-94446920D01*
X149766145Y-94438085D01*
X149768614Y-94436506D01*
X149776782Y-94432792D01*
X149812653Y-94401884D01*
X149820569Y-94395599D01*
X149827615Y-94390452D01*
X149827620Y-94390447D01*
X149831552Y-94387575D01*
X149842527Y-94376600D01*
X149849375Y-94370242D01*
X149880323Y-94343576D01*
X149880324Y-94343575D01*
X149887127Y-94337713D01*
X149892011Y-94330178D01*
X149897451Y-94323942D01*
X149907056Y-94312071D01*
X150173724Y-94045404D01*
X150236036Y-94011379D01*
X150262819Y-94008500D01*
X152865500Y-94008500D01*
X152933621Y-94028502D01*
X152980114Y-94082158D01*
X152991500Y-94134500D01*
X152991500Y-98601013D01*
X152971498Y-98669134D01*
X152917842Y-98715627D01*
X152847568Y-98725731D01*
X152782988Y-98696237D01*
X152758068Y-98666849D01*
X152742567Y-98641554D01*
X152732110Y-98632093D01*
X152723334Y-98635876D01*
X151872022Y-99487188D01*
X151864408Y-99501132D01*
X151864539Y-99502965D01*
X151868790Y-99509580D01*
X152720290Y-100361080D01*
X152732670Y-100367840D01*
X152740319Y-100362114D01*
X152758068Y-100333151D01*
X152810716Y-100285520D01*
X152880757Y-100273914D01*
X152945955Y-100302018D01*
X152985608Y-100360909D01*
X152991500Y-100398987D01*
X152991500Y-102765500D01*
X152971498Y-102833621D01*
X152917842Y-102880114D01*
X152865500Y-102891500D01*
X150470249Y-102891500D01*
X150443407Y-102888608D01*
X150364933Y-102871498D01*
X150308736Y-102859245D01*
X150277685Y-102856801D01*
X150085718Y-102841693D01*
X150085709Y-102841693D01*
X150083261Y-102841500D01*
X149927729Y-102841500D01*
X149925593Y-102841646D01*
X149925582Y-102841646D01*
X149717452Y-102855835D01*
X149717446Y-102855836D01*
X149713175Y-102856127D01*
X149708980Y-102856996D01*
X149708978Y-102856996D01*
X149597345Y-102880114D01*
X149431658Y-102914426D01*
X149160657Y-103010393D01*
X149156848Y-103012359D01*
X149007855Y-103089260D01*
X148905188Y-103142250D01*
X148901687Y-103144711D01*
X148901683Y-103144713D01*
X148787582Y-103224905D01*
X148669977Y-103307559D01*
X148654892Y-103321577D01*
X148546974Y-103421861D01*
X148459378Y-103503260D01*
X148277287Y-103725732D01*
X148127073Y-103970858D01*
X148011517Y-104234102D01*
X147932756Y-104510594D01*
X147892249Y-104795216D01*
X147892227Y-104799505D01*
X147892226Y-104799512D01*
X147890765Y-105078417D01*
X147890743Y-105082703D01*
X147928268Y-105367734D01*
X148004129Y-105645036D01*
X148116923Y-105909476D01*
X148264561Y-106156161D01*
X148444313Y-106380528D01*
X148652851Y-106578423D01*
X148886317Y-106746186D01*
X148890112Y-106748195D01*
X148890113Y-106748196D01*
X148911869Y-106759715D01*
X149140392Y-106880712D01*
X149410373Y-106979511D01*
X149691264Y-107040755D01*
X149716270Y-107042723D01*
X149914282Y-107058307D01*
X149914291Y-107058307D01*
X149916739Y-107058500D01*
X150072271Y-107058500D01*
X150074407Y-107058354D01*
X150074418Y-107058354D01*
X150282548Y-107044165D01*
X150282554Y-107044164D01*
X150286825Y-107043873D01*
X150291020Y-107043004D01*
X150291022Y-107043004D01*
X150444994Y-107011118D01*
X150470545Y-107008500D01*
X152865500Y-107008500D01*
X152933621Y-107028502D01*
X152980114Y-107082158D01*
X152991500Y-107134500D01*
X152991500Y-112865500D01*
X152971498Y-112933621D01*
X152917842Y-112980114D01*
X152865500Y-112991500D01*
X151331569Y-112991500D01*
X151263448Y-112971498D01*
X151216955Y-112917842D01*
X151206851Y-112847568D01*
X151230743Y-112789935D01*
X151283724Y-112719242D01*
X151300615Y-112696705D01*
X151351745Y-112560316D01*
X151358500Y-112498134D01*
X151358500Y-110701866D01*
X151351745Y-110639684D01*
X151300615Y-110503295D01*
X151213261Y-110386739D01*
X151096705Y-110299385D01*
X150960316Y-110248255D01*
X150898134Y-110241500D01*
X149101866Y-110241500D01*
X149039684Y-110248255D01*
X148903295Y-110299385D01*
X148786739Y-110386739D01*
X148699385Y-110503295D01*
X148696233Y-110511703D01*
X148654919Y-110621907D01*
X148612277Y-110678671D01*
X148545716Y-110703371D01*
X148476367Y-110688163D01*
X148443743Y-110662476D01*
X148393151Y-110606875D01*
X148393142Y-110606866D01*
X148389670Y-110603051D01*
X148385619Y-110599852D01*
X148385615Y-110599848D01*
X148218414Y-110467800D01*
X148218410Y-110467798D01*
X148214359Y-110464598D01*
X148018789Y-110356638D01*
X148013920Y-110354914D01*
X148013916Y-110354912D01*
X147813087Y-110283795D01*
X147813083Y-110283794D01*
X147808212Y-110282069D01*
X147803119Y-110281162D01*
X147803116Y-110281161D01*
X147593373Y-110243800D01*
X147593367Y-110243799D01*
X147588284Y-110242894D01*
X147514452Y-110241992D01*
X147370081Y-110240228D01*
X147370079Y-110240228D01*
X147364911Y-110240165D01*
X147144091Y-110273955D01*
X146931756Y-110343357D01*
X146733607Y-110446507D01*
X146729474Y-110449610D01*
X146729471Y-110449612D01*
X146559100Y-110577530D01*
X146554965Y-110580635D01*
X146515525Y-110621907D01*
X146461280Y-110678671D01*
X146400629Y-110742138D01*
X146293201Y-110899621D01*
X146238293Y-110944621D01*
X146167768Y-110952792D01*
X146104021Y-110921538D01*
X146083324Y-110897054D01*
X146002822Y-110772617D01*
X146002820Y-110772614D01*
X146000014Y-110768277D01*
X145849670Y-110603051D01*
X145845619Y-110599852D01*
X145845615Y-110599848D01*
X145678414Y-110467800D01*
X145678410Y-110467798D01*
X145674359Y-110464598D01*
X145478789Y-110356638D01*
X145473920Y-110354914D01*
X145473916Y-110354912D01*
X145273087Y-110283795D01*
X145273083Y-110283794D01*
X145268212Y-110282069D01*
X145263119Y-110281162D01*
X145263116Y-110281161D01*
X145053373Y-110243800D01*
X145053367Y-110243799D01*
X145048284Y-110242894D01*
X144974452Y-110241992D01*
X144830081Y-110240228D01*
X144830079Y-110240228D01*
X144824911Y-110240165D01*
X144604091Y-110273955D01*
X144391756Y-110343357D01*
X144193607Y-110446507D01*
X144189474Y-110449610D01*
X144189471Y-110449612D01*
X144019100Y-110577530D01*
X144014965Y-110580635D01*
X143975525Y-110621907D01*
X143921280Y-110678671D01*
X143860629Y-110742138D01*
X143753201Y-110899621D01*
X143698293Y-110944621D01*
X143627768Y-110952792D01*
X143564021Y-110921538D01*
X143543324Y-110897054D01*
X143462822Y-110772617D01*
X143462820Y-110772614D01*
X143460014Y-110768277D01*
X143309670Y-110603051D01*
X143305619Y-110599852D01*
X143305615Y-110599848D01*
X143138414Y-110467800D01*
X143138410Y-110467798D01*
X143134359Y-110464598D01*
X142938789Y-110356638D01*
X142933920Y-110354914D01*
X142933916Y-110354912D01*
X142733087Y-110283795D01*
X142733083Y-110283794D01*
X142728212Y-110282069D01*
X142723119Y-110281162D01*
X142723116Y-110281161D01*
X142513373Y-110243800D01*
X142513367Y-110243799D01*
X142508284Y-110242894D01*
X142434452Y-110241992D01*
X142290081Y-110240228D01*
X142290079Y-110240228D01*
X142284911Y-110240165D01*
X142064091Y-110273955D01*
X141851756Y-110343357D01*
X141653607Y-110446507D01*
X141649474Y-110449610D01*
X141649471Y-110449612D01*
X141479100Y-110577530D01*
X141474965Y-110580635D01*
X141435525Y-110621907D01*
X141381280Y-110678671D01*
X141320629Y-110742138D01*
X141213201Y-110899621D01*
X141158293Y-110944621D01*
X141087768Y-110952792D01*
X141024021Y-110921538D01*
X141003324Y-110897054D01*
X140922822Y-110772617D01*
X140922820Y-110772614D01*
X140920014Y-110768277D01*
X140769670Y-110603051D01*
X140765619Y-110599852D01*
X140765615Y-110599848D01*
X140598414Y-110467800D01*
X140598410Y-110467798D01*
X140594359Y-110464598D01*
X140398789Y-110356638D01*
X140393920Y-110354914D01*
X140393916Y-110354912D01*
X140193087Y-110283795D01*
X140193083Y-110283794D01*
X140188212Y-110282069D01*
X140183119Y-110281162D01*
X140183116Y-110281161D01*
X139973373Y-110243800D01*
X139973367Y-110243799D01*
X139968284Y-110242894D01*
X139894452Y-110241992D01*
X139750081Y-110240228D01*
X139750079Y-110240228D01*
X139744911Y-110240165D01*
X139524091Y-110273955D01*
X139311756Y-110343357D01*
X139113607Y-110446507D01*
X139109474Y-110449610D01*
X139109471Y-110449612D01*
X138939100Y-110577530D01*
X138934965Y-110580635D01*
X138895525Y-110621907D01*
X138841280Y-110678671D01*
X138780629Y-110742138D01*
X138654743Y-110926680D01*
X138560688Y-111129305D01*
X138500989Y-111344570D01*
X138477251Y-111566695D01*
X138490110Y-111789715D01*
X138491247Y-111794761D01*
X138491248Y-111794767D01*
X138515304Y-111901508D01*
X138539222Y-112007639D01*
X138623266Y-112214616D01*
X138660685Y-112275678D01*
X138737291Y-112400688D01*
X138739987Y-112405088D01*
X138886250Y-112573938D01*
X139058126Y-112716632D01*
X139126715Y-112756712D01*
X139175439Y-112808350D01*
X139188510Y-112878133D01*
X139161779Y-112943905D01*
X139103732Y-112984784D01*
X139063145Y-112991500D01*
X137134500Y-112991500D01*
X137066379Y-112971498D01*
X137019886Y-112917842D01*
X137008500Y-112865500D01*
X137008500Y-107134500D01*
X137028502Y-107066379D01*
X137082158Y-107019886D01*
X137134500Y-107008500D01*
X139529751Y-107008500D01*
X139556593Y-107011392D01*
X139691264Y-107040755D01*
X139716270Y-107042723D01*
X139914282Y-107058307D01*
X139914291Y-107058307D01*
X139916739Y-107058500D01*
X140072271Y-107058500D01*
X140074407Y-107058354D01*
X140074418Y-107058354D01*
X140282548Y-107044165D01*
X140282554Y-107044164D01*
X140286825Y-107043873D01*
X140291020Y-107043004D01*
X140291022Y-107043004D01*
X140427583Y-107014724D01*
X140568342Y-106985574D01*
X140839343Y-106889607D01*
X141094812Y-106757750D01*
X141098313Y-106755289D01*
X141098317Y-106755287D01*
X141242782Y-106653755D01*
X141330023Y-106592441D01*
X141540622Y-106396740D01*
X141722713Y-106174268D01*
X141872927Y-105929142D01*
X141988483Y-105665898D01*
X142067244Y-105389406D01*
X142107751Y-105104784D01*
X142107845Y-105086951D01*
X142109235Y-104821583D01*
X142109235Y-104821576D01*
X142109257Y-104817297D01*
X142071732Y-104532266D01*
X141995871Y-104254964D01*
X141883077Y-103990524D01*
X141808527Y-103865960D01*
X141737643Y-103747521D01*
X141737640Y-103747517D01*
X141735439Y-103743839D01*
X141555687Y-103519472D01*
X141347149Y-103321577D01*
X141113683Y-103153814D01*
X141106858Y-103150200D01*
X141041674Y-103115687D01*
X140859608Y-103019288D01*
X140589627Y-102920489D01*
X140308736Y-102859245D01*
X140277685Y-102856801D01*
X140085718Y-102841693D01*
X140085709Y-102841693D01*
X140083261Y-102841500D01*
X139927729Y-102841500D01*
X139925593Y-102841646D01*
X139925582Y-102841646D01*
X139717452Y-102855835D01*
X139717446Y-102855836D01*
X139713175Y-102856127D01*
X139708980Y-102856996D01*
X139708978Y-102856996D01*
X139555006Y-102888882D01*
X139529455Y-102891500D01*
X137134500Y-102891500D01*
X137066379Y-102871498D01*
X137019886Y-102817842D01*
X137008500Y-102765500D01*
X137008500Y-100732670D01*
X137632160Y-100732670D01*
X137637887Y-100740320D01*
X137809042Y-100845205D01*
X137817837Y-100849687D01*
X138027988Y-100936734D01*
X138037373Y-100939783D01*
X138258554Y-100992885D01*
X138268301Y-100994428D01*
X138495070Y-101012275D01*
X138504930Y-101012275D01*
X138731699Y-100994428D01*
X138741446Y-100992885D01*
X138962627Y-100939783D01*
X138972012Y-100936734D01*
X139182163Y-100849687D01*
X139190958Y-100845205D01*
X139358445Y-100742568D01*
X139367400Y-100732670D01*
X150632160Y-100732670D01*
X150637887Y-100740320D01*
X150809042Y-100845205D01*
X150817837Y-100849687D01*
X151027988Y-100936734D01*
X151037373Y-100939783D01*
X151258554Y-100992885D01*
X151268301Y-100994428D01*
X151495070Y-101012275D01*
X151504930Y-101012275D01*
X151731699Y-100994428D01*
X151741446Y-100992885D01*
X151962627Y-100939783D01*
X151972012Y-100936734D01*
X152182163Y-100849687D01*
X152190958Y-100845205D01*
X152358445Y-100742568D01*
X152367907Y-100732110D01*
X152364124Y-100723334D01*
X151512812Y-99872022D01*
X151498868Y-99864408D01*
X151497035Y-99864539D01*
X151490420Y-99868790D01*
X150638920Y-100720290D01*
X150632160Y-100732670D01*
X139367400Y-100732670D01*
X139367907Y-100732110D01*
X139364124Y-100723334D01*
X138512812Y-99872022D01*
X138498868Y-99864408D01*
X138497035Y-99864539D01*
X138490420Y-99868790D01*
X137638920Y-100720290D01*
X137632160Y-100732670D01*
X137008500Y-100732670D01*
X137008500Y-100398987D01*
X137028502Y-100330866D01*
X137082158Y-100284373D01*
X137152432Y-100274269D01*
X137217012Y-100303763D01*
X137241932Y-100333151D01*
X137257433Y-100358446D01*
X137267890Y-100367907D01*
X137276666Y-100364124D01*
X138127978Y-99512812D01*
X138134356Y-99501132D01*
X138864408Y-99501132D01*
X138864539Y-99502965D01*
X138868790Y-99509580D01*
X139720290Y-100361080D01*
X139732670Y-100367840D01*
X139740320Y-100362113D01*
X139845205Y-100190958D01*
X139849687Y-100182163D01*
X139936734Y-99972012D01*
X139939783Y-99962627D01*
X139992885Y-99741446D01*
X139994428Y-99731699D01*
X140012275Y-99504930D01*
X140012275Y-99495070D01*
X140012247Y-99494711D01*
X141832344Y-99494711D01*
X141841640Y-99506726D01*
X141876637Y-99531231D01*
X141886132Y-99536714D01*
X142071696Y-99623244D01*
X142081988Y-99626990D01*
X142279759Y-99679982D01*
X142290554Y-99681885D01*
X142494525Y-99699731D01*
X142505475Y-99699731D01*
X142709446Y-99681885D01*
X142720241Y-99679982D01*
X142918012Y-99626990D01*
X142928304Y-99623244D01*
X143113868Y-99536714D01*
X143123363Y-99531231D01*
X143159197Y-99506140D01*
X143167573Y-99495661D01*
X143167074Y-99494711D01*
X146832344Y-99494711D01*
X146841640Y-99506726D01*
X146876637Y-99531231D01*
X146886132Y-99536714D01*
X147071696Y-99623244D01*
X147081988Y-99626990D01*
X147279759Y-99679982D01*
X147290554Y-99681885D01*
X147494525Y-99699731D01*
X147505475Y-99699731D01*
X147709446Y-99681885D01*
X147720241Y-99679982D01*
X147918012Y-99626990D01*
X147928304Y-99623244D01*
X148113868Y-99536714D01*
X148123363Y-99531231D01*
X148159197Y-99506140D01*
X148160164Y-99504930D01*
X149987725Y-99504930D01*
X150005572Y-99731699D01*
X150007115Y-99741446D01*
X150060217Y-99962627D01*
X150063266Y-99972012D01*
X150150313Y-100182163D01*
X150154795Y-100190958D01*
X150257432Y-100358445D01*
X150267890Y-100367907D01*
X150276666Y-100364124D01*
X151127978Y-99512812D01*
X151135592Y-99498868D01*
X151135461Y-99497035D01*
X151131210Y-99490420D01*
X150279710Y-98638920D01*
X150267330Y-98632160D01*
X150259680Y-98637887D01*
X150154795Y-98809042D01*
X150150313Y-98817837D01*
X150063266Y-99027988D01*
X150060217Y-99037373D01*
X150007115Y-99258554D01*
X150005572Y-99268301D01*
X149987725Y-99495070D01*
X149987725Y-99504930D01*
X148160164Y-99504930D01*
X148167573Y-99495661D01*
X148160505Y-99482215D01*
X147512812Y-98834522D01*
X147498868Y-98826908D01*
X147497035Y-98827039D01*
X147490420Y-98831290D01*
X146838774Y-99482936D01*
X146832344Y-99494711D01*
X143167074Y-99494711D01*
X143160505Y-99482215D01*
X142512812Y-98834522D01*
X142498868Y-98826908D01*
X142497035Y-98827039D01*
X142490420Y-98831290D01*
X141838774Y-99482936D01*
X141832344Y-99494711D01*
X140012247Y-99494711D01*
X139994428Y-99268301D01*
X139992885Y-99258554D01*
X139939783Y-99037373D01*
X139936734Y-99027988D01*
X139849687Y-98817837D01*
X139845205Y-98809042D01*
X139742568Y-98641555D01*
X139732110Y-98632093D01*
X139723334Y-98635876D01*
X138872022Y-99487188D01*
X138864408Y-99501132D01*
X138134356Y-99501132D01*
X138135592Y-99498868D01*
X138135461Y-99497035D01*
X138131210Y-99490420D01*
X137279710Y-98638920D01*
X137267330Y-98632160D01*
X137259681Y-98637886D01*
X137241932Y-98666849D01*
X137189284Y-98714480D01*
X137119243Y-98726086D01*
X137054045Y-98697982D01*
X137014392Y-98639091D01*
X137008500Y-98601013D01*
X137008500Y-98267890D01*
X137632093Y-98267890D01*
X137635876Y-98276666D01*
X138487188Y-99127978D01*
X138501132Y-99135592D01*
X138502965Y-99135461D01*
X138509580Y-99131210D01*
X139172815Y-98467975D01*
X141262769Y-98467975D01*
X141280615Y-98671946D01*
X141282518Y-98682741D01*
X141335510Y-98880512D01*
X141339256Y-98890804D01*
X141425786Y-99076368D01*
X141431269Y-99085863D01*
X141456360Y-99121697D01*
X141466839Y-99130073D01*
X141480285Y-99123005D01*
X142127978Y-98475312D01*
X142134356Y-98463632D01*
X142864408Y-98463632D01*
X142864539Y-98465465D01*
X142868790Y-98472080D01*
X143520436Y-99123726D01*
X143532211Y-99130156D01*
X143544226Y-99120860D01*
X143568731Y-99085863D01*
X143574214Y-99076368D01*
X143660744Y-98890804D01*
X143664490Y-98880512D01*
X143717482Y-98682741D01*
X143719385Y-98671946D01*
X143737231Y-98467975D01*
X146262769Y-98467975D01*
X146280615Y-98671946D01*
X146282518Y-98682741D01*
X146335510Y-98880512D01*
X146339256Y-98890804D01*
X146425786Y-99076368D01*
X146431269Y-99085863D01*
X146456360Y-99121697D01*
X146466839Y-99130073D01*
X146480285Y-99123005D01*
X147127978Y-98475312D01*
X147134356Y-98463632D01*
X147864408Y-98463632D01*
X147864539Y-98465465D01*
X147868790Y-98472080D01*
X148520436Y-99123726D01*
X148532211Y-99130156D01*
X148544226Y-99120860D01*
X148568731Y-99085863D01*
X148574214Y-99076368D01*
X148660744Y-98890804D01*
X148664490Y-98880512D01*
X148717482Y-98682741D01*
X148719385Y-98671946D01*
X148737231Y-98467975D01*
X148737231Y-98457025D01*
X148720683Y-98267890D01*
X150632093Y-98267890D01*
X150635876Y-98276666D01*
X151487188Y-99127978D01*
X151501132Y-99135592D01*
X151502965Y-99135461D01*
X151509580Y-99131210D01*
X152361080Y-98279710D01*
X152367840Y-98267330D01*
X152362113Y-98259680D01*
X152190958Y-98154795D01*
X152182163Y-98150313D01*
X151972012Y-98063266D01*
X151962627Y-98060217D01*
X151741446Y-98007115D01*
X151731699Y-98005572D01*
X151504930Y-97987725D01*
X151495070Y-97987725D01*
X151268301Y-98005572D01*
X151258554Y-98007115D01*
X151037373Y-98060217D01*
X151027988Y-98063266D01*
X150817837Y-98150313D01*
X150809042Y-98154795D01*
X150641555Y-98257432D01*
X150632093Y-98267890D01*
X148720683Y-98267890D01*
X148719385Y-98253054D01*
X148717482Y-98242259D01*
X148664490Y-98044488D01*
X148660744Y-98034196D01*
X148574214Y-97848632D01*
X148568731Y-97839137D01*
X148543640Y-97803303D01*
X148533161Y-97794927D01*
X148519715Y-97801995D01*
X147872022Y-98449688D01*
X147864408Y-98463632D01*
X147134356Y-98463632D01*
X147135592Y-98461368D01*
X147135461Y-98459535D01*
X147131210Y-98452920D01*
X146479564Y-97801274D01*
X146467789Y-97794844D01*
X146455774Y-97804140D01*
X146431269Y-97839137D01*
X146425786Y-97848632D01*
X146339256Y-98034196D01*
X146335510Y-98044488D01*
X146282518Y-98242259D01*
X146280615Y-98253054D01*
X146262769Y-98457025D01*
X146262769Y-98467975D01*
X143737231Y-98467975D01*
X143737231Y-98457025D01*
X143719385Y-98253054D01*
X143717482Y-98242259D01*
X143664490Y-98044488D01*
X143660744Y-98034196D01*
X143574214Y-97848632D01*
X143568731Y-97839137D01*
X143543640Y-97803303D01*
X143533161Y-97794927D01*
X143519715Y-97801995D01*
X142872022Y-98449688D01*
X142864408Y-98463632D01*
X142134356Y-98463632D01*
X142135592Y-98461368D01*
X142135461Y-98459535D01*
X142131210Y-98452920D01*
X141479564Y-97801274D01*
X141467789Y-97794844D01*
X141455774Y-97804140D01*
X141431269Y-97839137D01*
X141425786Y-97848632D01*
X141339256Y-98034196D01*
X141335510Y-98044488D01*
X141282518Y-98242259D01*
X141280615Y-98253054D01*
X141262769Y-98457025D01*
X141262769Y-98467975D01*
X139172815Y-98467975D01*
X139361080Y-98279710D01*
X139367840Y-98267330D01*
X139362113Y-98259680D01*
X139190958Y-98154795D01*
X139182163Y-98150313D01*
X138972012Y-98063266D01*
X138962627Y-98060217D01*
X138741446Y-98007115D01*
X138731699Y-98005572D01*
X138504930Y-97987725D01*
X138495070Y-97987725D01*
X138268301Y-98005572D01*
X138258554Y-98007115D01*
X138037373Y-98060217D01*
X138027988Y-98063266D01*
X137817837Y-98150313D01*
X137809042Y-98154795D01*
X137641555Y-98257432D01*
X137632093Y-98267890D01*
X137008500Y-98267890D01*
X137008500Y-96162332D01*
X140392000Y-96162332D01*
X140392285Y-96168308D01*
X140406471Y-96316994D01*
X140408730Y-96328728D01*
X140464872Y-96520099D01*
X140469302Y-96531175D01*
X140560619Y-96708478D01*
X140567069Y-96718524D01*
X140690262Y-96875357D01*
X140698499Y-96884006D01*
X140849123Y-97014712D01*
X140858847Y-97021647D01*
X141031467Y-97121510D01*
X141042331Y-97126484D01*
X141230727Y-97191907D01*
X141231716Y-97192148D01*
X141242008Y-97190680D01*
X141246000Y-97177115D01*
X141246000Y-97172902D01*
X141754000Y-97172902D01*
X141757973Y-97186432D01*
X141786938Y-97190596D01*
X141851519Y-97220089D01*
X141889903Y-97279815D01*
X141889903Y-97350812D01*
X141851520Y-97410538D01*
X141841280Y-97418525D01*
X141840805Y-97418858D01*
X141832427Y-97429339D01*
X141839495Y-97442785D01*
X142487188Y-98090478D01*
X142501132Y-98098092D01*
X142502965Y-98097961D01*
X142509580Y-98093710D01*
X143161226Y-97442064D01*
X143167656Y-97430289D01*
X143166921Y-97429339D01*
X146832427Y-97429339D01*
X146839495Y-97442785D01*
X147487188Y-98090478D01*
X147501132Y-98098092D01*
X147502965Y-98097961D01*
X147509580Y-98093710D01*
X148161226Y-97442064D01*
X148167656Y-97430289D01*
X148146651Y-97403139D01*
X148147868Y-97402197D01*
X148119390Y-97366570D01*
X148112080Y-97295951D01*
X148144111Y-97232590D01*
X148205312Y-97196605D01*
X148218201Y-97194075D01*
X148242008Y-97190680D01*
X148246000Y-97177115D01*
X148246000Y-97172902D01*
X148754000Y-97172902D01*
X148757973Y-97186433D01*
X148767399Y-97187788D01*
X148856537Y-97166306D01*
X148867832Y-97162417D01*
X149049382Y-97079871D01*
X149059724Y-97073924D01*
X149222397Y-96958532D01*
X149231425Y-96950739D01*
X149369342Y-96806669D01*
X149376738Y-96797304D01*
X149484921Y-96629759D01*
X149490417Y-96619155D01*
X149564961Y-96434188D01*
X149568355Y-96422730D01*
X149606857Y-96225572D01*
X149607934Y-96216709D01*
X149608000Y-96214000D01*
X149608000Y-96034615D01*
X149603525Y-96019376D01*
X149602135Y-96018171D01*
X149594452Y-96016500D01*
X148772115Y-96016500D01*
X148756876Y-96020975D01*
X148755671Y-96022365D01*
X148754000Y-96030048D01*
X148754000Y-97172902D01*
X148246000Y-97172902D01*
X148246000Y-96034615D01*
X148241525Y-96019376D01*
X148240135Y-96018171D01*
X148232452Y-96016500D01*
X147410115Y-96016500D01*
X147394876Y-96020975D01*
X147393671Y-96022365D01*
X147392000Y-96030048D01*
X147392000Y-96162332D01*
X147392285Y-96168308D01*
X147406471Y-96316994D01*
X147408730Y-96328728D01*
X147464872Y-96520099D01*
X147469302Y-96531175D01*
X147560619Y-96708478D01*
X147567069Y-96718524D01*
X147690262Y-96875357D01*
X147698499Y-96884006D01*
X147849123Y-97014712D01*
X147858847Y-97021647D01*
X147872032Y-97029275D01*
X147920981Y-97080700D01*
X147934356Y-97150426D01*
X147907911Y-97216314D01*
X147850043Y-97257445D01*
X147776326Y-97260046D01*
X147720241Y-97245018D01*
X147709446Y-97243115D01*
X147505475Y-97225269D01*
X147494525Y-97225269D01*
X147290554Y-97243115D01*
X147279759Y-97245018D01*
X147081988Y-97298010D01*
X147071696Y-97301756D01*
X146886132Y-97388286D01*
X146876637Y-97393769D01*
X146840803Y-97418860D01*
X146832427Y-97429339D01*
X143166921Y-97429339D01*
X143158360Y-97418274D01*
X143123363Y-97393769D01*
X143113868Y-97388286D01*
X142928304Y-97301756D01*
X142918012Y-97298010D01*
X142720241Y-97245018D01*
X142709446Y-97243115D01*
X142505475Y-97225269D01*
X142494525Y-97225269D01*
X142290554Y-97243115D01*
X142279762Y-97245018D01*
X142216656Y-97261927D01*
X142145679Y-97260237D01*
X142086883Y-97220443D01*
X142058935Y-97155179D01*
X142070708Y-97085165D01*
X142111144Y-97037451D01*
X142222390Y-96958538D01*
X142231425Y-96950739D01*
X142369342Y-96806669D01*
X142376738Y-96797304D01*
X142484921Y-96629759D01*
X142490417Y-96619155D01*
X142564961Y-96434188D01*
X142568355Y-96422730D01*
X142606857Y-96225572D01*
X142607934Y-96216709D01*
X142608000Y-96214000D01*
X142608000Y-96034615D01*
X142603525Y-96019376D01*
X142602135Y-96018171D01*
X142594452Y-96016500D01*
X141772115Y-96016500D01*
X141756876Y-96020975D01*
X141755671Y-96022365D01*
X141754000Y-96030048D01*
X141754000Y-97172902D01*
X141246000Y-97172902D01*
X141246000Y-96034615D01*
X141241525Y-96019376D01*
X141240135Y-96018171D01*
X141232452Y-96016500D01*
X140410115Y-96016500D01*
X140394876Y-96020975D01*
X140393671Y-96022365D01*
X140392000Y-96030048D01*
X140392000Y-96162332D01*
X137008500Y-96162332D01*
X137008500Y-94134500D01*
X137028502Y-94066379D01*
X137082158Y-94019886D01*
X137134500Y-94008500D01*
X139737182Y-94008500D01*
X139805303Y-94028502D01*
G37*
G04 #@! TD.AperFunction*
M02*
