G04 #@! TF.GenerationSoftware,KiCad,Pcbnew,(6.0.4-0)*
G04 #@! TF.CreationDate,2022-10-21T13:57:14+02:00*
G04 #@! TF.ProjectId,SL_MicroUSB-Breakout,534c5f4d-6963-4726-9f55-53422d427265,rev?*
G04 #@! TF.SameCoordinates,Original*
G04 #@! TF.FileFunction,Legend,Top*
G04 #@! TF.FilePolarity,Positive*
%FSLAX46Y46*%
G04 Gerber Fmt 4.6, Leading zero omitted, Abs format (unit mm)*
G04 Created by KiCad (PCBNEW (6.0.4-0)) date 2022-10-21 13:57:14*
%MOMM*%
%LPD*%
G01*
G04 APERTURE LIST*
%ADD10C,1.000000*%
%ADD11C,0.100000*%
%ADD12C,0.150000*%
%ADD13C,0.120000*%
%ADD14R,0.400000X1.350000*%
%ADD15R,1.200000X1.900000*%
%ADD16R,1.500000X1.900000*%
%ADD17O,1.200000X1.900000*%
%ADD18C,1.450000*%
%ADD19R,1.700000X1.700000*%
%ADD20O,1.700000X1.700000*%
%ADD21C,2.000000*%
%ADD22C,3.200000*%
G04 APERTURE END LIST*
D10*
X149500000Y-94000000D02*
X150000000Y-93500000D01*
X153500000Y-94000000D02*
G75*
G03*
X153000000Y-93500000I-500000J0D01*
G01*
X136500000Y-107000000D02*
X136500000Y-113000000D01*
X150000000Y-106500000D02*
X153000000Y-106500000D01*
X140500000Y-94000000D02*
X149500000Y-94000000D01*
X136500000Y-113000000D02*
G75*
G03*
X137000000Y-113500000I500000J0D01*
G01*
X140000000Y-106500000D02*
X137000000Y-106500000D01*
X137000000Y-93500000D02*
X140000000Y-93500000D01*
X140000000Y-106500000D02*
G75*
G03*
X140000000Y-103400000I0J1550000D01*
G01*
X150000000Y-103400000D02*
X153000000Y-103400000D01*
X153000000Y-113500000D02*
G75*
G03*
X153500000Y-113000000I0J500000D01*
G01*
X140000000Y-93500000D02*
X140500000Y-94000000D01*
X137000000Y-113500000D02*
X145000000Y-113500000D01*
X145000000Y-113500000D02*
X153000000Y-113500000D01*
X153500000Y-94000000D02*
X153500000Y-103000000D01*
X153500000Y-107000000D02*
G75*
G03*
X153000000Y-106500000I-500000J0D01*
G01*
X137000000Y-106500000D02*
G75*
G03*
X136500000Y-107000000I0J-500000D01*
G01*
X150000000Y-103400000D02*
G75*
G03*
X150000000Y-106500000I0J-1550000D01*
G01*
X136500000Y-103000000D02*
X136500000Y-94000000D01*
X137000000Y-93500000D02*
G75*
G03*
X136500000Y-94000000I0J-500000D01*
G01*
X153500000Y-113000000D02*
X153500000Y-107000000D01*
X140000000Y-103400000D02*
X137000000Y-103400000D01*
X150000000Y-93500000D02*
X153000000Y-93500000D01*
X152999994Y-103400084D02*
G75*
G03*
X153500000Y-103000000I33606J470484D01*
G01*
X136500062Y-102999990D02*
G75*
G03*
X137000000Y-103400000I468238J72790D01*
G01*
D11*
X151702380Y-97559523D02*
X151726190Y-97488095D01*
X151726190Y-97369047D01*
X151702380Y-97321428D01*
X151678571Y-97297619D01*
X151630952Y-97273809D01*
X151583333Y-97273809D01*
X151535714Y-97297619D01*
X151511904Y-97321428D01*
X151488095Y-97369047D01*
X151464285Y-97464285D01*
X151440476Y-97511904D01*
X151416666Y-97535714D01*
X151369047Y-97559523D01*
X151321428Y-97559523D01*
X151273809Y-97535714D01*
X151250000Y-97511904D01*
X151226190Y-97464285D01*
X151226190Y-97345238D01*
X151250000Y-97273809D01*
X151726190Y-97059523D02*
X151226190Y-97059523D01*
X151726190Y-96845238D02*
X151464285Y-96845238D01*
X151416666Y-96869047D01*
X151392857Y-96916666D01*
X151392857Y-96988095D01*
X151416666Y-97035714D01*
X151440476Y-97059523D01*
X151726190Y-96607142D02*
X151392857Y-96607142D01*
X151226190Y-96607142D02*
X151250000Y-96630952D01*
X151273809Y-96607142D01*
X151250000Y-96583333D01*
X151226190Y-96607142D01*
X151273809Y-96607142D01*
X151702380Y-96178571D02*
X151726190Y-96226190D01*
X151726190Y-96321428D01*
X151702380Y-96369047D01*
X151654761Y-96392857D01*
X151464285Y-96392857D01*
X151416666Y-96369047D01*
X151392857Y-96321428D01*
X151392857Y-96226190D01*
X151416666Y-96178571D01*
X151464285Y-96154761D01*
X151511904Y-96154761D01*
X151559523Y-96392857D01*
X151726190Y-95869047D02*
X151702380Y-95916666D01*
X151654761Y-95940476D01*
X151226190Y-95940476D01*
X151726190Y-95464285D02*
X151226190Y-95464285D01*
X151702380Y-95464285D02*
X151726190Y-95511904D01*
X151726190Y-95607142D01*
X151702380Y-95654761D01*
X151678571Y-95678571D01*
X151630952Y-95702380D01*
X151488095Y-95702380D01*
X151440476Y-95678571D01*
X151416666Y-95654761D01*
X151392857Y-95607142D01*
X151392857Y-95511904D01*
X151416666Y-95464285D01*
D12*
X142100000Y-109861904D02*
X142100000Y-109061904D01*
X142480952Y-109861904D02*
X142480952Y-109061904D01*
X142671428Y-109061904D01*
X142785714Y-109100000D01*
X142861904Y-109176190D01*
X142900000Y-109252380D01*
X142938095Y-109404761D01*
X142938095Y-109519047D01*
X142900000Y-109671428D01*
X142861904Y-109747619D01*
X142785714Y-109823809D01*
X142671428Y-109861904D01*
X142480952Y-109861904D01*
X149947619Y-109061904D02*
X149566666Y-109061904D01*
X149528571Y-109442857D01*
X149566666Y-109404761D01*
X149642857Y-109366666D01*
X149833333Y-109366666D01*
X149909523Y-109404761D01*
X149947619Y-109442857D01*
X149985714Y-109519047D01*
X149985714Y-109709523D01*
X149947619Y-109785714D01*
X149909523Y-109823809D01*
X149833333Y-109861904D01*
X149642857Y-109861904D01*
X149566666Y-109823809D01*
X149528571Y-109785714D01*
X150214285Y-109061904D02*
X150480952Y-109861904D01*
X150747619Y-109061904D01*
X139390476Y-109100000D02*
X139314285Y-109061904D01*
X139200000Y-109061904D01*
X139085714Y-109100000D01*
X139009523Y-109176190D01*
X138971428Y-109252380D01*
X138933333Y-109404761D01*
X138933333Y-109519047D01*
X138971428Y-109671428D01*
X139009523Y-109747619D01*
X139085714Y-109823809D01*
X139200000Y-109861904D01*
X139276190Y-109861904D01*
X139390476Y-109823809D01*
X139428571Y-109785714D01*
X139428571Y-109519047D01*
X139276190Y-109519047D01*
X139771428Y-109861904D02*
X139771428Y-109061904D01*
X140228571Y-109861904D01*
X140228571Y-109061904D01*
X140609523Y-109861904D02*
X140609523Y-109061904D01*
X140800000Y-109061904D01*
X140914285Y-109100000D01*
X140990476Y-109176190D01*
X141028571Y-109252380D01*
X141066666Y-109404761D01*
X141066666Y-109519047D01*
X141028571Y-109671428D01*
X140990476Y-109747619D01*
X140914285Y-109823809D01*
X140800000Y-109861904D01*
X140609523Y-109861904D01*
D11*
X138297619Y-95440476D02*
X138273809Y-95511904D01*
X138273809Y-95630952D01*
X138297619Y-95678571D01*
X138321428Y-95702380D01*
X138369047Y-95726190D01*
X138416666Y-95726190D01*
X138464285Y-95702380D01*
X138488095Y-95678571D01*
X138511904Y-95630952D01*
X138535714Y-95535714D01*
X138559523Y-95488095D01*
X138583333Y-95464285D01*
X138630952Y-95440476D01*
X138678571Y-95440476D01*
X138726190Y-95464285D01*
X138750000Y-95488095D01*
X138773809Y-95535714D01*
X138773809Y-95654761D01*
X138750000Y-95726190D01*
X138273809Y-95940476D02*
X138773809Y-95940476D01*
X138273809Y-96154761D02*
X138535714Y-96154761D01*
X138583333Y-96130952D01*
X138607142Y-96083333D01*
X138607142Y-96011904D01*
X138583333Y-95964285D01*
X138559523Y-95940476D01*
X138273809Y-96392857D02*
X138607142Y-96392857D01*
X138773809Y-96392857D02*
X138750000Y-96369047D01*
X138726190Y-96392857D01*
X138750000Y-96416666D01*
X138773809Y-96392857D01*
X138726190Y-96392857D01*
X138297619Y-96821428D02*
X138273809Y-96773809D01*
X138273809Y-96678571D01*
X138297619Y-96630952D01*
X138345238Y-96607142D01*
X138535714Y-96607142D01*
X138583333Y-96630952D01*
X138607142Y-96678571D01*
X138607142Y-96773809D01*
X138583333Y-96821428D01*
X138535714Y-96845238D01*
X138488095Y-96845238D01*
X138440476Y-96607142D01*
X138273809Y-97130952D02*
X138297619Y-97083333D01*
X138345238Y-97059523D01*
X138773809Y-97059523D01*
X138273809Y-97535714D02*
X138773809Y-97535714D01*
X138297619Y-97535714D02*
X138273809Y-97488095D01*
X138273809Y-97392857D01*
X138297619Y-97345238D01*
X138321428Y-97321428D01*
X138369047Y-97297619D01*
X138511904Y-97297619D01*
X138559523Y-97321428D01*
X138583333Y-97345238D01*
X138607142Y-97392857D01*
X138607142Y-97488095D01*
X138583333Y-97535714D01*
D12*
X147095238Y-109861904D02*
X147095238Y-109061904D01*
X147285714Y-109061904D01*
X147400000Y-109100000D01*
X147476190Y-109176190D01*
X147514285Y-109252380D01*
X147552380Y-109404761D01*
X147552380Y-109519047D01*
X147514285Y-109671428D01*
X147476190Y-109747619D01*
X147400000Y-109823809D01*
X147285714Y-109861904D01*
X147095238Y-109861904D01*
X147895238Y-109557142D02*
X148504761Y-109557142D01*
X144695238Y-109861904D02*
X144695238Y-109061904D01*
X144885714Y-109061904D01*
X145000000Y-109100000D01*
X145076190Y-109176190D01*
X145114285Y-109252380D01*
X145152380Y-109404761D01*
X145152380Y-109519047D01*
X145114285Y-109671428D01*
X145076190Y-109747619D01*
X145000000Y-109823809D01*
X144885714Y-109861904D01*
X144695238Y-109861904D01*
X145495238Y-109557142D02*
X146104761Y-109557142D01*
X145800000Y-109861904D02*
X145800000Y-109252380D01*
D13*
X141100000Y-98762500D02*
X141550000Y-98762500D01*
X146700000Y-99312500D02*
X146250000Y-99312500D01*
X146700000Y-99312500D02*
X146700000Y-98862500D01*
X148900000Y-98762500D02*
X148450000Y-98762500D01*
X148900000Y-94362500D02*
X148900000Y-94612500D01*
X141100000Y-94362500D02*
X141100000Y-94612500D01*
X141100000Y-96912500D02*
X141100000Y-98762500D01*
X148900000Y-96912500D02*
X148900000Y-98762500D01*
X138595000Y-112830000D02*
X138595000Y-111500000D01*
X139925000Y-112830000D02*
X138595000Y-112830000D01*
X141195000Y-112830000D02*
X141195000Y-110170000D01*
X141195000Y-112830000D02*
X151415000Y-112830000D01*
X151415000Y-112830000D02*
X151415000Y-110170000D01*
X141195000Y-110170000D02*
X151415000Y-110170000D01*
X139751000Y-99500000D02*
G75*
G03*
X139751000Y-99500000I-1251000J0D01*
G01*
X152751000Y-99500000D02*
G75*
G03*
X152751000Y-99500000I-1251000J0D01*
G01*
%LPC*%
D14*
X146300000Y-98462500D03*
X145650000Y-98462500D03*
X145000000Y-98462500D03*
X144350000Y-98462500D03*
X143700000Y-98462500D03*
D15*
X142100000Y-95762500D03*
D16*
X144000000Y-95762500D03*
X146000000Y-95762500D03*
D17*
X148500000Y-95762500D03*
X141500000Y-95762500D03*
D18*
X147500000Y-98462500D03*
D15*
X147900000Y-95762500D03*
D18*
X142500000Y-98462500D03*
D19*
X139925000Y-111500000D03*
D20*
X142465000Y-111500000D03*
X145005000Y-111500000D03*
X147545000Y-111500000D03*
X150085000Y-111500000D03*
D21*
X138500000Y-99500000D03*
D22*
X140000000Y-104950000D03*
X150000000Y-104950000D03*
D21*
X151500000Y-99500000D03*
M02*
