G04 #@! TF.GenerationSoftware,KiCad,Pcbnew,(6.0.4-0)*
G04 #@! TF.CreationDate,2022-10-21T13:57:14+02:00*
G04 #@! TF.ProjectId,SL_MicroUSB-Breakout,534c5f4d-6963-4726-9f55-53422d427265,rev?*
G04 #@! TF.SameCoordinates,Original*
G04 #@! TF.FileFunction,Profile,NP*
%FSLAX46Y46*%
G04 Gerber Fmt 4.6, Leading zero omitted, Abs format (unit mm)*
G04 Created by KiCad (PCBNEW (6.0.4-0)) date 2022-10-21 13:57:14*
%MOMM*%
%LPD*%
G01*
G04 APERTURE LIST*
G04 #@! TA.AperFunction,Profile*
%ADD10C,0.100000*%
G04 #@! TD*
G04 APERTURE END LIST*
D10*
X150000000Y-106500000D02*
X153000000Y-106500000D01*
X137000000Y-93500000D02*
G75*
G03*
X136500000Y-94000000I0J-500000D01*
G01*
X150000000Y-103400000D02*
X153000000Y-103400000D01*
X153500000Y-113000000D02*
X153500000Y-107000000D01*
X140000000Y-106500000D02*
G75*
G03*
X140000000Y-103400000I0J1550000D01*
G01*
X149500000Y-94000000D02*
X150000000Y-93500000D01*
X136500000Y-113000000D02*
G75*
G03*
X137000000Y-113500000I500000J0D01*
G01*
X137000000Y-106500000D02*
G75*
G03*
X136500000Y-107000000I0J-500000D01*
G01*
X153500000Y-94000000D02*
X153500000Y-103000000D01*
X136500000Y-103000000D02*
X136500000Y-94000000D01*
X153000000Y-113500000D02*
G75*
G03*
X153500000Y-113000000I0J500000D01*
G01*
X150000000Y-93500000D02*
X153000000Y-93500000D01*
X136500000Y-107000000D02*
X136500000Y-113000000D01*
X137000000Y-93500000D02*
X140000000Y-93500000D01*
X140000000Y-106500000D02*
X137000000Y-106500000D01*
X137000000Y-113500000D02*
X145000000Y-113500000D01*
X140000000Y-93500000D02*
X140500000Y-94000000D01*
X140000000Y-103400000D02*
X137000000Y-103400000D01*
X145000000Y-113500000D02*
X153000000Y-113500000D01*
X153500000Y-94000000D02*
G75*
G03*
X153000000Y-93500000I-500000J0D01*
G01*
X140500000Y-94000000D02*
X149500000Y-94000000D01*
X136500000Y-103000000D02*
G75*
G03*
X137000000Y-103400000I468400J73000D01*
G01*
X152999998Y-103400021D02*
G75*
G03*
X153500000Y-103000000I33502J470621D01*
G01*
X150000000Y-103400000D02*
G75*
G03*
X150000000Y-106500000I0J-1550000D01*
G01*
X153500000Y-107000000D02*
G75*
G03*
X153000000Y-106500000I-500000J0D01*
G01*
M02*
